<svg width="1440" height="500" viewBox="0 0 1440 500" fill="none" xmlns="http://www.w3.org/2000/svg">
<rect x="-119" width="1678.16" height="500" rx="16" fill="url(#paint0_linear_0_38)" fill-opacity="0.2"/>
<g opacity="0.25">
<mask id="mask0_0_38" style="mask-type:alpha" maskUnits="userSpaceOnUse" x="-119" y="0" width="1679" height="500">
<rect x="-119" width="1678.16" height="500" rx="16" fill="white"/>
</mask>
<g mask="url(#mask0_0_38)">
<path d="M-11.5813 761.155L-45.5182 772.575C-50.233 774.17 -56.8382 770.25 -64.7188 760.197C-84.0561 735.579 -103.781 683.471 -108.791 643.809C-111.752 620.331 -108.905 606.494 -102.072 604.192L-68.1353 592.772C-74.9683 595.074 -16.296 762.728 -11.5813 761.155Z" fill="#FFB133"/>
<path d="M-4.83942 721.515C-9.85025 681.853 -29.5747 629.768 -48.9119 605.15C-68.2492 580.532 -79.8652 592.727 -74.8544 632.389C-69.8435 672.051 -50.1191 724.159 -30.7819 748.777C-11.4446 773.395 0.148636 761.178 -4.83942 721.515Z" fill="#FFD75A"/>
<path d="M-10.5336 714.289C-14.7244 681.055 -31.2602 637.426 -47.4543 616.798C-63.6483 596.169 -73.3739 606.403 -69.183 639.615C-64.9922 672.849 -48.4564 716.5 -32.2623 737.107C-16.0682 757.713 -6.34268 747.501 -10.5336 714.267V714.289Z" fill="url(#paint1_linear_0_38)"/>
<path d="M-29.1647 725.322C-29.5747 722.062 -30.6452 712.283 -31.2374 708.887C-32.7634 700.248 -33.8794 697.171 -25.9077 703.736C-8.36977 717.139 -33.3784 682.4 -35.1549 673.1C-35.6105 670.706 -39.4369 631.5 -43.9239 643.946C-44.8577 646.157 -46.2471 649.53 -47.1582 651.741C-49.4814 653.702 -56.4282 635.352 -60.7557 629.859C-68.4997 619.943 -54.7199 656.05 -53.4672 660.244C-51.349 667.242 -57.2026 671.823 -57.0204 678.069C-56.952 680.166 -55.9043 684.11 -52.9206 685.591C-52.9206 685.591 -43.195 690.697 -41.5324 696.305C-40.1885 700.818 -28.8231 736.172 -29.1647 725.299V725.322Z" fill="#C54C17"/>
<path d="M-27.707 725.003C-28.117 721.743 -29.1875 711.964 -29.7797 708.568C-31.3057 699.929 -32.4218 696.852 -24.45 703.416C-6.91208 716.82 -31.9207 682.081 -33.6972 672.781C-34.1528 670.387 -37.9792 631.181 -42.4662 643.627C-43.4 645.838 -44.7894 649.211 -45.7004 651.422C-48.0236 653.383 -54.9705 635.033 -59.298 629.54C-67.042 619.624 -53.2622 655.73 -52.0095 659.925C-49.8913 666.922 -55.7449 671.504 -55.5627 677.75C-55.4943 679.847 -54.4694 683.79 -51.4629 685.272C-51.4629 685.272 -41.7374 690.378 -40.0747 695.985C-38.7309 700.499 -27.3654 735.876 -27.707 724.98V725.003Z" fill="#FFD75A"/>
<path d="M-50.3469 617.459C-34.1528 638.065 -17.6398 681.716 -13.4262 714.95C-11.0802 733.619 -13.1073 745.016 -18.2092 747.774C-11.0346 748.071 -7.75481 736.172 -10.5108 714.312C-14.7016 681.078 -31.2374 637.449 -47.4315 616.82C-54.5377 607.794 -60.3913 604.671 -64.3772 606.814C-60.6418 606.973 -55.8815 610.415 -50.3469 617.459Z" fill="#C54C17"/>
<path d="M-32.2395 737.129C-48.4336 716.5 -64.9694 672.849 -69.1602 639.638C-71.6201 620.171 -69.2969 608.614 -63.6939 606.517C-70.3446 607.087 -73.2828 618.872 -70.6179 639.957C-66.4271 673.191 -49.8913 716.842 -33.6972 737.449C-27.0009 745.974 -21.3979 749.21 -17.4576 747.729C-21.284 748.048 -26.3404 744.652 -32.2623 737.129H-32.2395Z" fill="white"/>
<path d="M17.3677 374.31L39.347 393.708C42.399 396.398 42.3307 402.689 38.4359 412.4C28.9153 436.197 0.0575256 471.506 -25.976 491.268C-41.3957 502.962 -52.374 506.609 -56.7926 502.711L-78.7719 483.313C-74.3533 487.211 20.4197 377.023 17.3677 374.333V374.31Z" fill="#FFB133"/>
<path d="M-13.4489 385.753C-39.5053 405.516 -68.3403 440.824 -77.8609 464.622C-87.3815 488.419 -74.0117 491.656 -47.9553 471.893C-21.899 452.13 6.93602 416.799 16.4566 393.024C25.9772 369.25 12.5846 365.99 -13.4489 385.776V385.753Z" fill="#FFD75A"/>
<path d="M-16.2505 392.728C-38.0703 409.3 -62.2362 438.864 -70.208 458.786C-78.2025 478.709 -66.9737 481.444 -45.1538 464.873C-23.3339 448.301 0.831924 418.737 8.8037 398.791C16.7755 378.869 5.56943 376.157 -16.2505 392.728Z" fill="url(#paint2_linear_0_38)"/>
<path d="M-0.807983 401.436C-2.94897 403.054 -9.44028 407.818 -11.604 409.619C-17.0932 414.223 -18.8242 416.298 -17.4348 407.932C-15.1116 390.016 -29.5064 421.951 -35.3599 427.011C-36.8632 428.31 -63.0789 447.07 -52.4195 445.155C-50.4608 444.905 -47.4998 444.517 -45.5866 444.266C-43.2406 445.11 -53.3989 457.556 -55.5171 462.867C-59.3664 472.417 -39.4369 447.891 -36.9771 445.269C-32.8773 440.916 -27.2515 443.195 -22.8784 440.505C-21.4207 439.616 -19.052 437.246 -19.2342 434.51C-19.2342 434.51 -19.5986 425.529 -16.296 422.042C-13.6539 419.238 6.75381 396.717 -0.807983 401.39V401.436Z" fill="#C54C17"/>
<path d="M-1.62793 400.524C-3.76892 402.142 -10.2602 406.906 -12.424 408.707C-17.9131 413.311 -19.6442 415.386 -18.2548 407.02C-15.9316 389.104 -30.3263 421.039 -36.1799 426.099C-37.6831 427.398 -63.8989 446.158 -53.2395 444.244C-51.2807 443.993 -48.3198 443.605 -46.4065 443.355C-44.0606 444.198 -54.2189 456.644 -56.3371 461.955C-60.1863 471.506 -40.2569 446.979 -37.797 444.358C-33.6973 440.004 -28.0714 442.283 -23.6984 439.593C-22.2407 438.704 -19.8719 436.334 -20.0541 433.599C-20.0541 433.599 -20.4185 424.618 -17.116 421.13C-14.4739 418.326 5.93387 395.805 -1.62793 400.478V400.524Z" fill="#FFD75A"/>
<path d="M-68.5681 460.587C-60.5963 440.665 -36.4304 411.1 -14.6105 394.529C-2.35678 385.229 6.57161 381.992 10.603 384.499C7.89264 379.279 -1.87848 381.832 -16.2505 392.728C-38.0703 409.3 -62.2362 438.864 -70.208 458.786C-73.7155 467.517 -73.5106 472.942 -70.3674 474.902C-71.7795 472.19 -71.3012 467.403 -68.5681 460.587Z" fill="#C54C17"/>
<path d="M8.8037 398.791C0.809143 418.714 -23.3339 448.301 -45.1538 464.873C-57.9314 474.583 -67.0876 477.66 -70.8457 474.537C-67.7253 479.028 -58.1592 476.27 -44.3339 465.784C-22.514 449.213 1.65189 419.648 9.62366 399.703C12.9262 391.452 12.9263 386.163 10.2614 383.975C12.0607 386.551 11.7191 391.52 8.8037 398.814V398.791Z" fill="white"/>
<path d="M472.761 180.694C434.109 192.844 396.642 168.909 389.057 127.218C381.473 85.5045 406.641 41.8532 445.293 29.6809C483.944 17.5315 521.412 41.4656 528.996 83.1795C536.581 124.871 511.413 168.545 472.784 180.694H472.761Z" fill="#FFD75A"/>
<path d="M470.529 168.431C438.163 178.62 406.777 158.561 400.423 123.64C394.068 88.7185 415.159 52.1335 447.525 41.9671C479.89 31.778 511.276 51.8371 517.631 86.7582C523.985 121.679 502.894 158.242 470.552 168.431H470.529Z" fill="url(#paint3_linear_0_38)"/>
<path d="M445.065 185.504C458.025 190.564 472.807 191.271 487.793 186.552C526.445 174.403 551.613 130.729 544.006 89.0377C539.359 63.4851 523.484 44.6113 503.008 36.6104L487.976 30.7295C508.452 38.7303 524.327 57.6041 528.973 83.1567C536.558 124.848 511.39 168.522 472.761 180.671C457.797 185.39 442.992 184.683 430.032 179.623L445.065 185.504Z" fill="#FFB133"/>
<path d="M448.663 127.72C450.508 127.127 452.399 127.902 453.31 129.635C454.995 132.803 464.288 150.195 464.288 150.195C466.497 154.344 472.26 151.677 472.419 147.642C472.784 143.972 474.788 126.808 475.13 122.773C475.585 117.576 483.284 116.551 487.862 115.069C490.572 114.18 497.223 112.584 501.277 110.784C504.899 109.188 506.812 104.333 502.074 102.372C497.177 100.344 490.162 97.4716 485.265 95.4429C481.53 94.2804 477.931 92.4796 478.523 87.8296C478.615 86.3251 481.553 63.4851 481.462 64.2601C482.099 60.7042 478 57.8321 475.061 60.1115C474.15 60.6358 470.939 65.1491 470.21 65.9925C467.386 68.2036 458.435 85.1626 453.583 82.4501L433.13 74.0389C429.463 72.5801 425.317 77.025 427.162 80.5126C427.618 81.3559 442.582 101.917 437.845 107.478L422.493 127.15C419.623 130.82 422.379 135.994 426.525 134.695C432.697 132.757 442.468 129.68 448.641 127.743L448.663 127.72Z" fill="#C54C17"/>
<path d="M447.092 126.649C448.937 126.056 450.827 126.831 451.738 128.563C453.424 131.732 462.717 149.124 462.717 149.124C464.926 153.272 470.688 150.605 470.848 146.571C471.212 142.901 473.217 125.737 473.558 121.702C474.014 116.505 481.712 115.479 486.29 113.998C489.001 113.109 495.651 111.513 499.706 109.712C503.327 108.117 505.24 103.261 500.503 101.301C495.606 99.2724 488.591 96.4003 483.694 94.3716C479.958 93.2091 476.36 91.4083 476.952 86.7582C477.043 85.2538 479.981 62.4138 479.89 63.1888C480.528 59.6328 476.428 56.7607 473.49 59.0402C472.579 59.5645 469.367 64.0778 468.638 64.9212C465.814 67.1322 456.863 84.0913 452.012 81.3787L431.558 72.9676C427.891 71.5088 423.746 75.9537 425.591 79.4412C426.046 80.2846 441.011 100.845 436.273 106.407L420.922 126.079C418.052 129.749 420.808 134.923 424.953 133.624C431.126 131.686 440.897 128.609 447.069 126.671L447.092 126.649Z" fill="#FFD75A"/>
<path d="M412.585 151.039C407.575 144.018 403.953 135.584 402.222 126.033C395.867 91.112 416.959 54.5269 449.324 44.3605C471.782 37.2943 493.784 44.7936 507.245 61.7299C493.989 43.1297 471.007 34.5589 447.525 41.9671C415.159 52.1562 394.068 88.7185 400.423 123.64C402.359 134.307 406.664 143.585 412.585 151.039Z" fill="#C54C17"/>
<path d="M517.631 86.7582C523.985 121.679 502.894 158.242 470.552 168.431C453.925 173.651 437.571 170.893 424.725 162.253C437.799 171.736 454.813 174.95 472.1 169.502C504.466 159.313 525.534 122.751 519.18 87.8296C516.082 70.8249 507.062 57.3762 494.9 49.193C506.288 57.4446 514.67 70.483 517.631 86.7582Z" fill="white"/>
<path d="M94.7622 823.862C69.7536 854.954 62.6701 909.319 78.9553 945.266C95.2405 981.235 128.722 985.179 153.731 954.087C178.739 922.995 185.823 868.631 169.537 832.661C153.252 796.691 119.771 792.748 94.7622 823.839V823.862Z" fill="#FFD75A"/>
<path d="M100.456 835.214C79.4109 861.382 73.4662 907.108 87.1549 937.379C100.866 967.65 129.018 970.978 150.064 944.81C171.109 918.642 177.054 872.916 163.365 842.645C149.654 812.374 121.502 809.069 100.456 835.237V835.214Z" fill="#C54C17"/>
<path d="M99.4314 834.188C78.3859 860.356 72.4412 906.082 86.1299 936.353C99.8414 966.624 127.993 969.952 149.039 943.784C170.084 917.616 176.029 871.89 162.34 841.619C148.629 811.348 120.477 808.043 99.4314 834.211V834.188Z" fill="url(#paint4_linear_0_38)"/>
<path d="M107.768 799.313C94.0561 797.421 79.1603 804.168 66.4738 819.965C41.4652 851.056 34.3817 905.421 50.6669 941.368C58.6842 959.079 70.8696 969.017 84.1483 970.841L112.437 974.739C99.1581 972.915 86.9727 962.954 78.9553 945.266C62.6701 909.296 69.7536 854.954 94.7622 823.862C107.472 808.066 122.345 801.319 136.056 803.211L107.768 799.313Z" fill="#FFB133"/>
<path d="M139.655 844.719C152.933 836.969 134.416 878.387 139.04 881.601C139.04 883.105 151.977 896.052 152.911 896.941C155.758 899.768 154.049 905.102 150.496 905.945L133.414 908.247C131.637 908.566 130.612 910.458 130.157 912.282L125.533 932.341C124.987 934.233 124.144 940.205 122.777 941.596C120.819 944.171 118.04 942.416 117.766 939.658C117.903 940.456 118.154 941.094 118.473 941.596C116.719 938.199 115.694 910.846 110.319 911.347C106.606 911.872 100.889 912.601 97.131 913.125L93.2362 913.65C90.0475 914.083 88.9315 907.769 91.5963 904.441L99.5453 894.571C101.868 891.106 108.701 885.498 107.312 880.62L103.873 861.222C103.167 857.393 101.299 850.623 105.535 848.435C107.563 847.09 110.045 851.398 111.344 852.378C127.765 869.565 119.907 867.24 139.632 844.742L139.655 844.719Z" fill="#C54C17"/>
<path d="M141.705 844.696C154.983 836.946 136.466 878.364 141.09 881.578C141.09 883.082 154.027 896.03 154.96 896.918C157.808 899.745 156.099 905.079 152.546 905.922L135.464 908.225C133.687 908.544 132.662 910.436 132.207 912.259L127.583 932.318C127.037 934.21 126.194 940.182 124.827 941.573C122.868 944.149 120.09 942.393 119.816 939.635C119.953 940.433 120.204 941.071 120.522 941.573C118.769 938.177 117.744 910.823 112.368 911.325C108.656 911.849 102.939 912.578 99.1809 913.103L95.2861 913.627C92.0974 914.06 90.9813 907.746 93.6462 904.418L101.595 894.548C103.918 891.083 110.751 885.476 109.362 880.598L105.923 861.2C105.217 857.37 103.349 850.6 107.585 848.412C109.613 847.067 112.095 851.375 113.393 852.355C129.815 869.542 121.957 867.217 141.682 844.719L141.705 844.696Z" fill="#FFD75A"/>
<path d="M88.1798 936.33C74.4684 906.059 80.4358 860.333 101.481 834.165C110.569 822.859 121.001 817.069 131 816.568C120.363 816.34 109.134 822.107 99.4314 834.188C78.3859 860.356 72.4412 906.082 86.1299 936.353C93.9195 953.54 106.355 962.042 119.52 961.381C107.13 961.108 95.5594 952.628 88.1798 936.33Z" fill="white"/>
<path d="M38.8687 181.811C31.808 136.929 -11.2624 104.196 -57.3392 108.686C-103.416 113.177 -135.03 153.204 -127.992 198.086C-120.931 242.969 -77.8609 275.701 -31.8068 271.211C14.2701 266.72 45.9066 226.693 38.8459 181.788L38.8687 181.811Z" fill="#FFD75A"/>
<path d="M25.2939 183.133C19.3948 145.568 -16.6832 118.146 -55.2438 121.907C-93.8272 125.668 -120.293 159.176 -114.394 196.764C-108.495 234.352 -72.4401 261.751 -33.8567 257.99C4.7267 254.229 31.2158 220.721 25.2939 183.133Z" fill="url(#paint5_linear_0_38)"/>
<path d="M-55.4716 123.343C-16.8882 119.582 19.167 146.981 25.0661 184.569C26.1366 191.316 26.1366 197.927 25.2256 204.286C26.3644 197.516 26.4327 190.427 25.2939 183.156C19.3948 145.591 -16.6832 118.169 -55.2438 121.93C-86.8804 125.03 -110.386 148.121 -114.554 177.07C-109.839 148.782 -86.607 126.375 -55.4716 123.343Z" fill="#C54C17"/>
<path d="M30.6236 230.819L24.77 241.578C12.8351 263.529 -9.75915 279.257 -37.6376 281.97C-83.7144 286.46 -126.785 253.728 -133.823 208.845C-136.601 191.134 -133.367 174.152 -125.578 159.837L-119.724 149.078C-127.514 163.393 -130.748 180.352 -127.969 198.086C-120.908 242.969 -77.8381 275.701 -31.784 271.211C-3.90559 268.498 18.6887 252.747 30.6236 230.819Z" fill="#FFB133"/>
<path d="M-4.79385 168.818C0.148636 168.34 3.15514 174.289 -0.375229 177.503C-2.40233 180.649 -23.3112 193.231 -20.6691 199.659C-18.642 204.583 -10.6702 218.237 -8.00535 224.938C-6.31989 229.406 -11.6268 232.62 -15.3166 230.409L-39.0497 217.37C-40.9857 216.299 -43.4 216.481 -45.0399 217.963L-59.3891 230.956C-61.0063 232.21 -64.6733 235.857 -66.8371 236.404C-70.413 237.316 -73.875 234.375 -72.7362 230.363C-71.1874 224.072 -69.0008 214.954 -67.1787 206.908C-66.336 203.192 -68.7958 200.753 -71.1418 199.75C-76.3349 196.947 -94.8749 186.712 -94.8749 186.712C-99.3163 184.273 -98.2458 177.913 -93.3033 177.435C-93.3033 177.435 -70.2991 176.021 -66.9282 175.155C-64.5366 174.54 -62.8284 173.354 -62.6006 170.961L-59.2525 151.449C-58.6375 148.235 -58.5464 141.761 -53.9683 141.807C-47.4998 141.328 -44.8122 150.97 -43.0128 155.711C-41.5324 159.632 -37.1365 172.557 -31.1918 171.371C-23.835 170.665 -12.1735 169.525 -4.81665 168.795L-4.79385 168.818Z" fill="#C54C17"/>
<path d="M-3.15398 167.61C1.78853 167.131 4.79504 173.081 1.26468 176.295C-0.762421 179.44 -21.6712 192.023 -19.0292 198.451C-17.0021 203.375 -9.03029 217.029 -6.36545 223.73C-4.67998 228.198 -9.9869 231.412 -13.6767 229.201L-37.4098 216.162C-39.3458 215.091 -41.7601 215.273 -43.4 216.755L-57.7492 229.748C-59.3663 231.001 -63.0334 234.649 -65.1971 235.196C-68.773 236.107 -72.2351 233.167 -71.0962 229.155C-69.5474 222.864 -67.3609 213.746 -65.5388 205.7C-64.6961 201.984 -67.1559 199.545 -69.5019 198.542C-74.6949 195.738 -93.235 185.504 -93.235 185.504C-97.6764 183.065 -96.6059 176.705 -91.6634 176.226C-91.6634 176.226 -68.6592 174.813 -65.2882 173.947C-62.8967 173.332 -61.1885 172.146 -60.9607 169.753L-57.6126 150.241C-56.9976 147.027 -56.9065 140.553 -52.3284 140.599C-45.8599 140.12 -43.1723 149.762 -41.3729 154.503C-39.8925 158.424 -35.4966 171.348 -29.5519 170.163C-22.1951 169.434 -10.5335 168.317 -3.17673 167.587L-3.15398 167.61Z" fill="#FFD75A"/>
<path d="M-33.8795 257.99C-72.4628 261.751 -108.518 234.352 -114.417 196.764C-115.488 190.017 -115.488 183.407 -114.577 177.07C-115.715 183.84 -115.784 190.929 -114.645 198.2C-108.746 235.788 -72.6906 263.187 -34.1072 259.426C-2.47066 256.326 21.0347 233.235 25.2028 204.264C20.4881 232.552 -2.76675 254.958 -33.8795 257.99Z" fill="white"/>
<path d="M270.096 142.331C228.096 115.821 170.13 127.743 140.657 168.932C111.161 210.145 121.32 265.034 163.319 291.544C205.342 318.053 263.286 306.155 292.758 264.965C322.231 223.776 312.118 168.864 270.096 142.331Z" fill="#FFD75A"/>
<path d="M261.395 154.481C226.228 132.279 177.714 142.263 153.025 176.751C128.335 211.239 136.83 257.215 171.997 279.394C207.164 301.596 255.701 291.635 280.368 257.124C305.058 222.636 296.562 176.66 261.395 154.458V154.481Z" fill="url(#paint6_linear_0_38)"/>
<path d="M154.027 177.959C178.716 143.471 227.23 133.487 262.397 155.689C268.706 159.678 274.15 164.442 278.728 169.753C273.968 163.94 268.182 158.766 261.395 154.481C226.228 132.279 177.714 142.263 153.025 176.751C132.776 205.061 134.872 241.054 155.689 265.33C135.828 241.077 134.12 205.791 154.049 177.936L154.027 177.959Z" fill="#C54C17"/>
<path d="M304.465 184.432L309.089 196.992C318.541 222.636 315.216 252.588 297.382 277.525C267.886 318.737 209.943 330.636 167.943 304.103C151.362 293.641 139.746 278.733 133.573 262.002L128.95 249.442C135.122 266.173 146.738 281.058 163.319 291.544C205.342 318.053 263.286 306.155 292.758 264.965C310.592 240.028 313.94 210.076 304.465 184.432Z" fill="#FFB133"/>
<path d="M227.959 168.955C231.125 164.533 238.186 166.334 238.277 171.576C239.416 175.497 234.701 201.802 241.898 204.241C247.41 206.11 264.379 209.37 271.827 212.014C276.701 213.837 275.539 220.539 271.052 221.975L243.242 232.141C240.987 232.962 239.37 235.082 239.416 237.498L239.78 258.674C239.644 260.908 240.008 266.561 238.892 268.749C237.07 272.351 232.173 273.08 229.667 269.251C225.613 263.438 219.691 255.072 214.384 247.755C211.925 244.382 208.166 244.655 205.638 245.863C199.58 248.097 177.828 256.03 177.828 256.03C172.612 257.945 168.171 252.474 171.337 248.052C171.337 248.052 186.734 228.061 188.465 224.687C189.695 222.271 189.945 220.015 188.123 218.1L174.48 201.3C172.271 198.474 167.009 193.733 170.357 190.017C174.617 184.341 184.502 189.082 189.695 191.02C193.977 192.638 207.802 198.314 211.082 192.547C215.797 185.96 223.244 175.543 227.959 168.955Z" fill="#C54C17"/>
<path d="M228.141 166.744C231.307 162.322 238.368 164.123 238.459 169.365C239.598 173.286 234.883 199.591 242.081 202.03C247.592 203.899 264.561 207.158 272.009 209.803C276.906 211.626 275.721 218.328 271.234 219.764L243.424 229.93C241.17 230.751 239.552 232.871 239.598 235.287L239.962 256.463C239.826 258.697 240.19 264.35 239.097 266.538C237.275 270.14 232.378 270.869 229.872 267.04C225.818 261.227 219.896 252.861 214.589 245.544C212.13 242.171 208.371 242.444 205.843 243.652C199.785 245.886 178.033 253.819 178.033 253.819C172.817 255.733 168.376 250.263 171.542 245.841C171.542 245.841 186.939 225.85 188.67 222.476C189.9 220.06 190.15 217.803 188.328 215.889L174.685 199.089C172.476 196.263 167.214 191.522 170.562 187.806C174.822 182.13 184.707 186.871 189.9 188.809C194.182 190.427 208.007 196.103 211.287 190.336C216.002 183.749 223.449 173.332 228.164 166.744H228.141Z" fill="#FFD75A"/>
<path d="M280.368 257.147C255.678 291.635 207.164 301.619 171.997 279.417C165.688 275.428 160.245 270.664 155.689 265.353C160.45 271.165 166.235 276.34 173.022 280.625C208.189 302.827 256.726 292.866 281.393 258.355C301.641 230.044 299.546 194.052 278.728 169.753C298.612 194.006 300.297 229.315 280.368 257.147Z" fill="white"/>
<path d="M95.1038 561.225C80.7091 532.504 96.6982 489.331 130.795 464.804C164.914 440.254 204.249 443.651 218.644 472.372C233.038 501.093 217.049 544.243 182.93 568.792C148.811 593.319 109.499 589.946 95.1038 561.225Z" fill="#FFD75A"/>
<path d="M105.331 553.885C93.3273 529.928 106.652 493.89 135.122 473.42C163.593 452.928 196.414 455.778 208.417 479.735C220.42 503.691 207.096 539.729 178.625 560.199C150.155 580.668 117.334 577.842 105.331 553.885Z" fill="url(#paint7_linear_0_38)"/>
<path d="M114.714 449.691C80.5952 474.218 64.6289 517.391 79.0236 546.112C81.3696 550.785 84.3761 554.797 87.9065 558.125L104.009 573.26C100.479 569.932 97.4726 565.943 95.1266 561.247C80.7319 532.526 96.721 489.354 130.817 464.827C159.379 444.289 191.585 443.309 209.761 460.405L193.658 445.269C175.482 428.196 143.276 429.154 114.714 449.691Z" fill="#FFB133"/>
<path d="M127.56 498.699C126.012 495.622 130.043 490.995 133.46 491.93C136.876 492.112 153.161 499.566 155.872 495.645C157.124 495.371 170.631 478.914 172.749 476.315C175.528 472.965 180.015 474.697 179.126 478.504L174.298 500.067C173.933 501.731 174.526 503.327 176.165 503.805L194.318 508.843C198.168 510.119 195.844 515.658 192.542 516.775C189.968 517.664 169.15 522.77 167.761 529.244C166.736 533.94 162.932 550.808 162.932 550.808C162.021 554.842 156.714 556.939 155.166 553.862C155.166 553.862 149.585 542.419 148.56 540.413C147.376 538.02 144.415 535.376 141.955 536.607L126.467 542.67C123.757 543.764 118.837 546.385 117.539 543.399C116.081 540.026 120.249 536.607 122.504 534.054C124.827 531.41 132.275 522.884 134.667 520.058C137.742 517.003 134.781 513.447 133.482 510.621C132.275 508.182 128.699 501.07 127.515 498.722L127.56 498.699Z" fill="#C54C17"/>
<path d="M129.36 499.087C127.811 496.01 131.842 491.382 135.259 492.317C138.675 492.499 154.961 499.953 157.671 496.055C158.924 495.782 172.43 479.324 174.548 476.726C177.327 473.375 181.814 475.107 180.926 478.914L176.097 500.477C175.733 502.141 176.325 503.737 177.965 504.216L196.118 509.253C199.967 510.53 197.644 516.069 194.341 517.186C191.767 518.075 170.95 523.181 169.56 529.654C168.535 534.35 164.732 551.218 164.732 551.218C163.821 555.253 158.514 557.35 156.965 554.272C156.965 554.272 151.385 542.83 150.36 540.824C149.175 538.43 146.214 535.786 143.754 537.017L128.266 543.08C125.556 544.174 120.636 546.796 119.338 543.81C117.88 540.436 122.048 537.017 124.303 534.464C126.627 531.82 134.074 523.295 136.466 520.468C139.541 517.414 136.58 513.858 135.282 511.031C134.074 508.592 130.499 501.48 129.314 499.133L129.36 499.087Z" fill="#FFD75A"/>
<path d="M206.64 479.347C218.644 503.304 205.319 539.342 176.849 559.811C161.042 571.186 143.891 575.357 129.701 572.713C144.21 576.064 162.158 572.029 178.648 560.176C207.119 539.684 220.466 503.669 208.44 479.712C203.11 469.067 193.635 462.593 182.292 460.473C192.838 462.912 201.607 469.226 206.663 479.324L206.64 479.347Z" fill="#C54C17"/>
<path d="M133.323 473.033C104.852 493.502 91.5279 529.54 103.531 553.497C108.861 564.142 118.336 570.616 129.679 572.736C119.133 570.297 110.387 563.983 105.331 553.885C93.3273 529.928 106.652 493.89 135.122 473.42C150.929 462.046 168.08 457.875 182.27 460.519C167.761 457.168 149.813 461.203 133.323 473.056V473.033Z" fill="white"/>
<path d="M764.505 -16.2499C790.356 13.7248 784.23 70.1411 750.862 109.735C717.472 149.352 669.459 157.147 643.607 127.15C617.756 97.1753 623.883 40.759 657.273 1.16508C690.664 -38.4289 738.677 -46.2246 764.505 -16.2499Z" fill="#FFD75A"/>
<path d="M754.506 -4.37398C776.076 20.6543 770.974 67.7249 743.118 100.777C715.24 133.829 675.176 140.325 653.606 115.32C632.037 90.2914 637.139 43.2208 665.017 10.1689C692.873 -22.8831 732.937 -29.3795 754.506 -4.37398Z" fill="url(#paint8_linear_0_38)"/>
<path d="M774.641 122.956C808.031 83.3619 814.135 26.9456 788.284 -3.02911C784.07 -7.90712 779.287 -11.7822 774.049 -14.6999L750.27 -27.9206C755.486 -25.0258 760.291 -21.1279 764.505 -16.2499C790.356 13.7248 784.23 70.1411 750.862 109.735C722.915 142.901 684.696 153.751 657.843 138.821L681.621 152.042C708.475 166.972 746.694 156.122 774.641 122.956Z" fill="#FFB133"/>
<path d="M744.53 68.2491C747.286 71.4632 743.87 78.2103 739.519 78.1191C735.397 78.9397 713.668 74.9279 711.618 80.4214C710.183 81.128 699 104.88 697.269 108.618C694.968 113.473 689.069 112.744 689.001 107.934L688.272 80.6949C688.227 78.5978 687.019 76.8654 684.924 76.797L661.715 76.25C656.727 75.8853 657.843 68.5683 661.442 66.2432C664.266 64.3969 687.589 52.0195 687.293 43.8819C687.111 37.9553 686.564 16.6425 686.564 16.6425C686.427 11.5366 692.144 7.45634 694.923 10.6704C694.923 10.6704 705.036 22.6602 706.858 24.7573C708.999 27.2419 713.326 29.5442 715.9 27.3103L732.572 15.3888C735.465 13.2461 740.567 8.64165 743.004 11.8329C745.76 15.4116 741.797 20.7683 739.884 24.5066C737.902 28.3588 731.57 40.8046 729.566 44.8848C726.81 49.4665 731.411 52.8401 733.825 55.8261C736.012 58.3563 742.412 65.7873 744.53 68.2491Z" fill="#C54C17"/>
<path d="M742.275 68.3403C745.031 71.5543 741.615 78.3015 737.264 78.2103C733.142 79.0309 711.413 75.0191 709.363 80.5125C707.928 81.2192 696.745 104.971 695.014 108.709C692.714 113.564 686.814 112.835 686.746 108.025L686.017 80.7861C685.972 78.689 684.765 76.9566 682.669 76.8882L659.46 76.3411C654.472 75.9764 655.588 68.6594 659.187 66.3344C662.011 64.488 685.334 52.1107 685.038 43.973C684.856 38.0465 684.309 16.7337 684.309 16.7337C684.173 11.6277 689.889 7.54751 692.668 10.7615C692.668 10.7615 702.781 22.7514 704.603 24.8485C706.744 27.3331 711.071 29.6353 713.645 27.4015L730.318 15.48C733.21 13.3373 738.312 8.73283 740.749 11.924C743.505 15.5028 739.542 20.8595 737.629 24.5978C735.647 28.45 729.315 40.8958 727.311 44.976C724.555 49.5577 729.156 52.9313 731.57 55.9173C733.757 58.4475 740.157 65.8785 742.275 68.3403Z" fill="#FFD75A"/>
<path d="M655.861 115.206C634.292 90.1774 639.394 43.1068 667.272 10.0549C682.738 -8.29463 701.984 -18.461 719.727 -19.5779C701.369 -19.2132 681.143 -9.00125 665.017 10.1461C637.139 43.198 632.037 90.2686 653.606 115.297C663.195 126.421 676.451 131.299 690.641 130.387C677.294 130.66 664.926 125.737 655.861 115.206Z" fill="#C54C17"/>
<path d="M745.35 100.663C773.206 67.6109 778.308 20.5404 756.738 -4.48795C747.15 -15.6116 733.916 -20.4897 719.704 -19.5779C733.051 -19.8514 745.396 -14.9278 754.483 -4.39677C776.053 20.6315 770.951 67.7021 743.095 100.754C727.607 119.104 708.384 129.27 690.641 130.387C708.999 130.022 729.224 119.81 745.35 100.663Z" fill="white"/>
<path d="M1581.13 911.325C1534.94 891.311 1478.78 912.259 1455.64 958.099C1432.49 1003.94 1451.19 1057.35 1497.36 1077.36C1543.55 1097.4 1599.74 1076.45 1622.86 1030.61C1646 984.768 1627.32 931.361 1581.13 911.325Z" fill="#FFD75A"/>
<path d="M1574.32 924.819C1535.65 908.065 1488.62 925.594 1469.26 963.98C1449.9 1002.37 1465.52 1047.07 1504.19 1063.82C1542.87 1080.6 1589.9 1063.07 1609.29 1024.68C1628.65 986.296 1613.02 941.573 1574.35 924.819H1574.32Z" fill="url(#paint9_linear_0_38)"/>
<path d="M1470.44 965.028C1489.8 926.642 1536.86 909.113 1575.51 925.867C1582.45 928.876 1588.65 932.797 1594.03 937.424C1588.35 932.341 1581.77 928.056 1574.3 924.819C1535.63 908.065 1488.59 925.594 1469.23 963.98C1453.33 995.459 1461.03 1031.2 1485.65 1052.29C1461.99 1031.09 1454.82 996.006 1470.44 965.028Z" fill="#C54C17"/>
<path d="M1622.11 948.138L1628.69 959.991C1642.15 984.198 1643.45 1014.72 1629.47 1042.46C1606.32 1088.3 1550.16 1109.25 1503.97 1089.21C1485.72 1081.3 1471.78 1068.2 1463.01 1052.4L1456.43 1040.55C1465.2 1056.34 1479.16 1069.45 1497.38 1077.36C1543.58 1097.4 1599.76 1076.45 1622.88 1030.61C1636.89 1002.87 1635.57 972.345 1622.11 948.138Z" fill="#FFB133"/>
<path d="M1543.07 944.513C1545.56 939.59 1552.91 940.296 1553.82 945.539C1555.56 949.3 1554.92 976.357 1562.53 977.702C1568.33 978.705 1585.83 979.343 1593.71 980.825C1598.88 981.896 1598.74 988.78 1594.48 990.923L1568.22 1005.42C1566.08 1006.61 1564.8 1008.98 1565.21 1011.37L1568.86 1032.52C1569.06 1034.78 1570.32 1040.36 1569.54 1042.73C1568.29 1046.61 1563.48 1048.11 1560.38 1044.67C1555.42 1039.48 1548.18 1032.02 1541.73 1025.52C1538.75 1022.52 1535.01 1023.4 1532.69 1025C1526.97 1028.19 1506.4 1039.5 1506.4 1039.5C1501.48 1042.21 1496.18 1037.42 1498.66 1032.52C1498.66 1032.52 1510.98 1010.12 1512.19 1006.47C1513.03 1003.87 1512.94 1001.55 1510.82 999.927L1494.54 985.224C1491.9 982.74 1485.88 978.796 1488.66 974.556C1492.03 968.22 1502.69 971.411 1508.18 972.551C1512.71 973.485 1527.45 977.041 1529.84 970.75C1533.53 963.433 1539.38 951.83 1543.1 944.491L1543.07 944.513Z" fill="#C54C17"/>
<path d="M1542.91 942.279C1545.4 937.356 1552.75 938.062 1553.67 943.305C1555.4 947.066 1554.76 974.123 1562.37 975.468C1568.17 976.471 1585.67 977.109 1593.55 978.591C1598.72 979.662 1598.58 986.546 1594.32 988.689L1568.06 1003.19C1565.92 1004.37 1564.64 1006.74 1565.05 1009.14L1568.7 1030.29C1568.9 1032.55 1570.16 1038.13 1569.38 1040.5C1568.13 1044.38 1563.32 1045.88 1560.22 1042.44C1555.26 1037.24 1548.02 1029.79 1541.57 1023.29C1538.59 1020.28 1534.85 1021.17 1532.53 1022.77C1526.81 1025.96 1506.24 1037.26 1506.24 1037.26C1501.32 1039.98 1496.02 1035.19 1498.5 1030.29C1498.5 1030.29 1510.82 1007.88 1512.03 1004.23C1512.87 1001.64 1512.78 999.311 1510.66 997.693L1494.38 982.99C1491.74 980.506 1485.72 976.562 1488.5 972.323C1491.87 965.986 1502.53 969.177 1508.02 970.317C1512.55 971.251 1527.29 974.807 1529.68 968.516C1533.37 961.199 1539.23 949.596 1542.94 942.257L1542.91 942.279Z" fill="#FFD75A"/>
<path d="M1609.26 1024.68C1589.9 1063.07 1542.85 1080.6 1504.17 1063.82C1497.23 1060.81 1491.03 1056.89 1485.65 1052.26C1491.33 1057.35 1497.91 1061.63 1505.38 1064.87C1544.05 1081.64 1591.09 1064.12 1610.47 1025.73C1626.37 994.228 1618.67 958.509 1594.05 937.424C1617.71 958.623 1624.89 993.726 1609.26 1024.68Z" fill="white"/>
<path d="M1546.6 608.136C1556.01 645.952 1530.89 680.554 1490.48 685.409C1450.06 690.287 1409.67 663.572 1400.24 625.756C1390.84 587.94 1415.96 553.361 1456.39 548.483C1496.79 543.605 1537.2 570.32 1546.6 608.113V608.136Z" fill="#FFD75A"/>
<path d="M1534.72 609.572C1542.6 641.233 1521.55 670.205 1487.7 674.285C1453.86 678.365 1420.01 655.981 1412.13 624.32C1404.25 592.658 1425.3 563.686 1459.14 559.606C1492.99 555.526 1526.81 577.887 1534.69 609.549L1534.72 609.572Z" fill="url(#paint10_linear_0_38)"/>
<path d="M1549.61 635.01C1555.21 622.861 1556.76 608.705 1553.1 594.049C1543.69 556.233 1503.28 529.54 1462.88 534.418C1438.12 537.404 1419.1 551.537 1410.24 570.73L1403.75 584.817C1412.61 565.624 1431.63 551.491 1456.39 548.505C1496.79 543.627 1537.2 570.342 1546.6 608.136C1550.25 622.793 1548.72 636.948 1543.12 649.097L1549.61 635.01Z" fill="#FFB133"/>
<path d="M1494.42 628.218C1493.97 626.394 1494.81 624.639 1496.52 623.864C1499.66 622.428 1516.86 614.518 1516.86 614.518C1520.96 612.626 1518.75 606.95 1514.88 606.563C1511.37 606.016 1495.04 603.075 1491.19 602.528C1486.25 601.799 1485.7 594.345 1484.54 589.854C1483.86 587.21 1482.69 580.737 1481.21 576.725C1479.89 573.169 1475.34 571.026 1473.2 575.471C1470.96 580.053 1467.82 586.618 1465.59 591.199C1464.24 594.71 1462.33 598.083 1457.89 597.217C1456.46 597.035 1434.73 592.909 1435.48 593.023C1432.11 592.202 1429.12 595.963 1431.13 598.927C1431.58 599.838 1435.71 603.166 1436.48 603.919C1438.42 606.768 1454.18 616.342 1451.28 620.832L1442.04 640.002C1440.42 643.421 1444.43 647.684 1447.89 646.111C1448.73 645.724 1469.3 632.548 1474.36 637.426L1492.33 653.314C1495.7 656.277 1500.8 653.93 1499.8 649.872C1498.3 643.832 1495.9 634.258 1494.4 628.218H1494.42Z" fill="#C54C17"/>
<path d="M1493.31 629.654C1492.85 627.83 1493.69 626.075 1495.4 625.3C1498.55 623.864 1515.74 615.954 1515.74 615.954C1519.84 614.062 1517.63 608.386 1513.76 607.999C1510.25 607.452 1493.92 604.511 1490.07 603.964C1485.13 603.235 1484.58 595.781 1483.42 591.291C1482.74 588.646 1481.58 582.173 1480.1 578.161C1478.78 574.605 1474.22 572.462 1472.08 576.907C1469.85 581.489 1466.7 588.054 1464.47 592.635C1463.13 596.169 1461.22 599.519 1456.77 598.653C1455.34 598.471 1433.61 594.345 1434.36 594.459C1430.99 593.638 1428.01 597.4 1430.01 600.363C1430.47 601.275 1434.59 604.603 1435.36 605.355C1437.3 608.204 1453.06 617.778 1450.17 622.268L1440.92 641.438C1439.3 644.858 1443.31 649.12 1446.78 647.547C1447.62 647.16 1468.18 633.985 1473.24 638.863L1491.21 654.75C1494.58 657.714 1499.68 655.366 1498.68 651.308C1497.18 645.268 1494.79 635.694 1493.28 629.654H1493.31Z" fill="#FFD75A"/>
<path d="M1514.69 664.21C1507.68 668.609 1499.39 671.595 1490.12 672.712C1456.27 676.793 1422.43 654.408 1414.55 622.747C1409.08 600.773 1417.55 580.098 1434.57 568.131C1415.96 579.779 1406.44 601.343 1412.15 624.342C1420.04 656.004 1453.88 678.365 1487.73 674.308C1498.07 673.054 1507.22 669.475 1514.69 664.21Z" fill="#C54C17"/>
<path d="M1459.14 559.629C1492.99 555.549 1526.81 577.91 1534.69 609.572C1538.75 625.824 1535.15 641.37 1526.13 653.223C1535.99 641.233 1540.04 625.072 1535.81 608.158C1527.93 576.497 1494.1 554.136 1460.26 558.216C1443.79 560.199 1430.38 568.086 1421.81 579.301C1430.4 568.861 1443.38 561.544 1459.14 559.652V559.629Z" fill="white"/>
<path d="M-57.157 1017.62L-24.2222 1014.06C-19.6442 1013.56 -14.4511 1018.41 -9.3264 1029.06C3.24623 1055.16 10.6941 1106.15 7.34599 1142.98C5.36444 1164.78 0.0119629 1176.72 -6.616 1177.45L-39.5508 1181.01C-32.9228 1180.3 -52.579 1017.11 -57.157 1017.62Z" fill="#FFB133"/>
<path d="M-71.119 1052.08C-74.49 1088.92 -67.0193 1139.91 -54.4694 1165.98C-41.8968 1192.08 -28.9825 1183.38 -25.6116 1146.54C-22.2407 1109.7 -29.7113 1058.71 -42.284 1032.61C-54.8566 1006.54 -67.7709 1015.24 -71.1418 1052.08H-71.119Z" fill="#FFD75A"/>
<path d="M-67.4292 1059.72C-70.2535 1090.56 -63.99 1133.3 -53.4672 1155.13C-42.9445 1176.99 -32.1257 1169.7 -29.3014 1138.84C-26.4771 1107.97 -32.7406 1065.26 -43.2634 1043.4C-53.7861 1021.54 -64.6049 1028.85 -67.4292 1059.69V1059.72Z" fill="url(#paint11_linear_0_38)"/>
<path d="M-48.3881 1053.47C-48.6614 1056.5 -49.6408 1065.55 -49.7774 1068.72C-50.1191 1076.81 -49.7091 1079.84 -55.6082 1072.3C-68.7958 1056.71 -53.1028 1093.06 -53.3534 1101.82C-53.4217 1104.05 -57.772 1140.25 -51.2124 1129.9C-49.9369 1128.08 -48.0009 1125.32 -46.7482 1123.5C-44.2655 1122.2 -41.6235 1140.16 -38.7992 1145.97C-33.7656 1156.46 -39.0269 1121.12 -39.3458 1117.07C-39.8697 1110.32 -33.6745 1107.36 -32.5812 1101.66C-32.2168 1099.77 -32.3762 1095.98 -34.7905 1094.04C-34.7905 1094.04 -42.5573 1087.5 -42.9445 1082.08C-43.2634 1077.75 -46.4749 1043.51 -48.3425 1053.4L-48.3881 1053.47Z" fill="#C54C17"/>
<path d="M-49.7774 1053.47C-50.0508 1056.5 -51.0302 1065.55 -51.1668 1068.72C-51.5085 1076.81 -51.0985 1079.84 -56.9976 1072.3C-70.1852 1056.71 -54.4922 1093.06 -54.7427 1101.82C-54.8111 1104.05 -59.1614 1140.25 -52.6017 1129.9C-51.3263 1128.08 -49.3903 1125.32 -48.1376 1123.5C-45.6549 1122.2 -43.0128 1140.16 -40.1885 1145.97C-35.1549 1156.46 -40.4163 1121.12 -40.7352 1117.07C-41.259 1110.32 -35.0638 1107.36 -33.9706 1101.66C-33.6061 1099.77 -33.7656 1095.98 -36.1799 1094.04C-36.1799 1094.04 -43.9467 1087.5 -44.3339 1082.08C-44.6527 1077.75 -47.8642 1043.51 -49.7319 1053.4L-49.7774 1053.47Z" fill="#FFD75A"/>
<path d="M-50.7113 1155.16C-61.234 1133.3 -67.4976 1090.58 -64.6733 1059.74C-63.0789 1042.39 -58.9792 1032.5 -53.8089 1031.04C-60.2319 1029.33 -65.5616 1039.43 -67.4292 1059.74C-70.2535 1090.58 -63.99 1133.32 -53.4672 1155.16C-48.8436 1164.73 -44.1744 1168.72 -40.1658 1167.56C-43.4911 1166.67 -47.1354 1162.61 -50.7341 1155.13L-50.7113 1155.16Z" fill="#C54C17"/>
<path d="M-43.2634 1043.42C-32.7406 1065.28 -26.4771 1108.02 -29.3014 1138.86C-30.9641 1156.93 -35.3599 1166.92 -40.8263 1167.69C-34.7222 1168.51 -29.7113 1158.44 -27.912 1138.86C-25.0877 1108.02 -31.3513 1065.28 -41.874 1043.42C-46.2243 1034.37 -50.643 1030.33 -54.515 1030.88C-50.9846 1031.36 -47.1126 1035.42 -43.2634 1043.42Z" fill="white"/>
<path d="M1229.6 47.1187C1261.49 46.4576 1293.35 79.2133 1300.8 120.312C1308.25 161.41 1288.41 195.26 1256.55 195.944C1224.66 196.605 1192.79 163.849 1185.37 122.751C1177.94 81.6523 1197.76 47.8025 1229.62 47.1415L1229.6 47.1187Z" fill="#FFD75A"/>
<path d="M1231.83 59.4277C1258.44 58.8806 1285.04 86.2112 1291.23 120.517C1297.43 154.822 1280.89 183.065 1254.29 183.635C1227.69 184.182 1201.09 156.851 1194.89 122.546C1188.69 88.2627 1205.23 59.9975 1231.83 59.4505V59.4277Z" fill="url(#paint12_linear_0_38)"/>
<path d="M1321.21 112.311C1313.78 71.2124 1281.9 38.4568 1250.01 39.1178C1244.82 39.2318 1239.94 40.212 1235.45 41.9671L1215.02 49.968C1219.51 48.2128 1224.39 47.2327 1229.58 47.1187C1261.47 46.4576 1293.33 79.2133 1300.78 120.312C1307 154.731 1294.13 184.045 1271.05 193.072L1291.48 185.071C1314.56 176.044 1327.43 146.708 1321.21 112.311Z" fill="#FFB133"/>
<path d="M1271.78 102.919C1275.2 102.851 1277.64 108.459 1275.34 111.103C1273.72 114.089 1260.08 125.532 1262.42 129.635C1262.13 130.888 1271.12 150.036 1272.53 153.044C1274.36 156.965 1270.89 160.27 1267.87 157.831L1250.58 144.291C1249.26 143.243 1247.57 143.106 1246.43 144.383L1234.16 158.538C1231.38 161.456 1227.39 157.011 1227.8 153.569C1228.1 150.879 1232.4 130.022 1227.21 126.01C1223.43 123.093 1209.92 112.47 1209.92 112.47C1206.69 109.94 1207.08 104.287 1210.51 104.196C1210.51 104.196 1223.16 104.059 1225.39 104.014C1228.03 103.968 1231.67 102.441 1231.63 99.7054L1232.79 83.2251C1232.95 80.3302 1232.7 74.7911 1235.93 74.9051C1239.58 75.0419 1240.85 80.239 1242.2 83.3618C1243.59 86.5759 1248.05 96.9017 1249.55 100.253C1250.99 104.31 1255.43 103.17 1258.53 103.216C1261.22 103.17 1269.12 102.988 1271.74 102.942L1271.78 102.919Z" fill="#C54C17"/>
<path d="M1270.69 104.378C1274.11 104.31 1276.54 109.917 1274.24 112.562C1272.63 115.548 1258.98 126.99 1261.33 131.093C1261.03 132.347 1270.03 151.494 1271.44 154.503C1273.26 158.424 1269.8 161.729 1266.77 159.29L1249.49 145.75C1248.16 144.702 1246.48 144.565 1245.34 145.841L1233.06 159.997C1230.28 162.914 1226.3 158.47 1226.71 155.028C1227 152.338 1231.31 131.481 1226.12 127.469C1222.34 124.551 1208.83 113.929 1208.83 113.929C1205.59 111.399 1205.98 105.746 1209.42 105.655C1209.42 105.655 1222.06 105.518 1224.29 105.472C1226.94 105.427 1230.58 103.9 1230.54 101.164L1231.7 84.6839C1231.86 81.789 1231.61 76.25 1234.84 76.3639C1238.48 76.5007 1239.76 81.6978 1241.1 84.8207C1242.49 88.0347 1246.96 98.3606 1248.46 101.711C1249.9 105.769 1254.34 104.629 1257.43 104.675C1260.12 104.629 1268.03 104.447 1270.64 104.401L1270.69 104.378Z" fill="#FFD75A"/>
<path d="M1255.41 182.176C1228.8 182.723 1202.2 155.392 1196.01 121.087C1192.57 102.031 1196.14 84.8663 1204.55 73.2639C1195.35 84.8663 1191.31 102.692 1194.89 122.546C1201.09 156.851 1227.69 184.204 1254.29 183.635C1266.11 183.384 1275.95 177.662 1282.69 168.362C1276 176.796 1266.59 181.948 1255.41 182.199V182.176Z" fill="#C54C17"/>
<path d="M1292.35 119.058C1286.16 84.7751 1259.55 57.4218 1232.95 57.9688C1221.13 58.2196 1211.29 63.941 1204.55 73.2411C1211.24 64.8072 1220.63 59.6556 1231.83 59.4277C1258.44 58.8806 1285.04 86.2112 1291.23 120.517C1294.67 139.573 1291.1 156.737 1282.69 168.362C1291.89 156.76 1295.93 138.935 1292.35 119.081V119.058Z" fill="white"/>
<path d="M584.389 317.826C560.223 273.582 502.985 255.505 456.521 277.479C410.057 299.43 391.996 353.111 416.139 397.355C440.304 441.622 497.542 459.675 543.983 437.724C590.447 415.773 608.532 362.092 584.366 317.826H584.389Z" fill="#FFD75A"/>
<path d="M570.7 324.299C550.474 287.258 502.553 272.123 463.65 290.518C424.748 308.913 409.625 353.841 429.85 390.882C450.076 427.946 497.997 443.058 536.9 424.686C575.802 406.291 590.948 361.363 570.723 324.299H570.7Z" fill="url(#paint13_linear_0_38)"/>
<path d="M463.947 292.068C502.849 273.673 550.771 288.808 570.996 325.849C574.64 332.505 577.1 339.412 578.512 346.387C577.168 338.888 574.595 331.457 570.677 324.299C550.452 287.258 502.53 272.123 463.628 290.518C431.718 305.608 415.82 338.546 422.288 370.344C416.64 339.024 432.538 306.907 463.924 292.068H463.947Z" fill="#C54C17"/>
<path d="M594.114 372.122L592.019 385.548C587.759 412.947 570.039 437.861 541.91 451.127C495.446 473.079 438.209 455.025 414.066 410.758C404.523 393.275 401.584 374.333 404.363 356.462L406.459 343.036C403.68 360.907 406.641 379.849 416.161 397.333C440.327 441.599 497.565 459.653 544.006 437.702C572.112 424.412 589.855 399.521 594.114 372.122Z" fill="#FFB133"/>
<path d="M533.916 320.606C538.904 318.259 544.279 323.342 541.774 328.037C540.84 332.072 523.689 353.066 528.86 358.787C532.823 363.164 546.261 374.447 551.545 380.465C554.984 384.499 550.634 389.856 545.942 388.921L516.287 384.203C513.873 383.815 511.413 384.91 510.251 387.052L500.116 406.017C498.908 407.932 496.449 413.106 494.376 414.52C490.982 416.799 486.267 415.044 485.949 410.417C485.22 403.259 484.081 392.91 482.988 383.815C482.487 379.599 479.002 378.003 476.178 377.821C469.709 376.818 446.522 373.102 446.522 373.102C440.965 372.213 439.735 365.17 444.7 362.822C444.7 362.822 468.206 352.724 471.394 350.558C473.672 349.031 475.016 347.139 474.333 344.541L470.529 322.909C469.96 319.33 467.636 312.514 472.442 310.873C479.002 307.956 485.447 317.028 489.092 321.313C492.098 324.846 501.551 336.722 507.313 333.235C514.738 329.724 526.491 324.162 533.916 320.652V320.606Z" fill="#C54C17"/>
<path d="M535.169 318.737C540.157 316.389 545.532 321.473 543.027 326.168C542.093 330.203 524.942 351.197 530.112 356.918C534.075 361.295 547.513 372.578 552.798 378.596C556.237 382.63 551.887 387.987 547.195 387.052L517.54 382.334C515.125 381.946 512.665 383.04 511.504 385.183L501.368 404.148C500.161 406.063 497.701 411.237 495.629 412.65C492.235 414.93 487.52 413.175 487.201 408.547C486.472 401.39 485.334 391.041 484.24 381.946C483.739 377.729 480.254 376.134 477.43 375.951C470.962 374.948 447.775 371.233 447.775 371.233C442.218 370.344 440.988 363.3 445.953 360.953C445.953 360.953 469.458 350.855 472.647 348.689C474.925 347.162 476.269 345.27 475.585 342.672L471.782 321.04C471.212 317.461 468.889 310.645 473.695 309.004C480.254 306.086 486.7 315.159 490.344 319.444C493.351 322.977 502.803 334.853 508.566 331.365C515.991 327.855 527.743 322.293 535.169 318.783V318.737Z" fill="#FFD75A"/>
<path d="M536.9 424.663C497.997 443.058 450.076 427.923 429.85 390.859C426.229 384.203 423.746 377.296 422.334 370.321C423.678 377.821 426.251 385.251 430.169 392.409C450.394 429.473 498.316 444.585 537.218 426.213C569.128 411.123 585.026 378.185 578.558 346.364C584.206 377.684 568.308 409.801 536.922 424.64L536.9 424.663Z" fill="white"/>
<path d="M1381.86 358.764C1360.02 316.731 1306.61 298.655 1262.54 318.373C1218.46 338.09 1200.45 388.146 1222.29 430.179C1244.13 472.235 1297.54 490.311 1341.62 470.594C1385.69 450.877 1403.7 400.797 1381.88 358.764H1381.86Z" fill="#FFD75A"/>
<path d="M1368.88 364.577C1350.59 329.382 1305.88 314.247 1268.98 330.75C1232.08 347.253 1217.01 389.172 1235.27 424.367C1253.56 459.561 1298.27 474.72 1335.17 458.194C1372.07 441.691 1387.17 399.772 1368.88 364.554V364.577Z" fill="url(#paint14_linear_0_38)"/>
<path d="M1269.23 332.232C1306.13 315.728 1350.86 330.864 1369.13 366.059C1372.41 372.373 1374.6 378.915 1375.8 385.502C1374.69 378.436 1372.41 371.392 1368.88 364.6C1350.59 329.405 1305.88 314.27 1268.98 330.773C1238.71 344.313 1223.13 374.948 1228.6 404.969C1223.91 375.45 1239.46 345.589 1269.23 332.254V332.232Z" fill="#C54C17"/>
<path d="M1389.95 409.961L1387.72 422.52C1383.18 448.187 1366.06 471.232 1339.38 483.154C1295.31 502.871 1241.9 484.795 1220.06 442.739C1211.43 426.145 1209.03 408.297 1211.99 391.543L1214.23 378.983C1211.27 395.714 1213.68 413.562 1222.29 430.179C1244.13 472.235 1297.54 490.311 1341.62 470.594C1368.29 458.65 1385.42 435.604 1389.95 409.961Z" fill="#FFB133"/>
<path d="M1334.4 360.383C1339.13 358.263 1344.08 363.141 1341.64 367.495C1340.68 371.279 1324.17 390.654 1328.91 396.124C1332.55 400.319 1344.94 411.169 1349.79 416.913C1352.94 420.765 1348.75 425.712 1344.37 424.731L1316.61 419.717C1314.35 419.306 1312.01 420.287 1310.89 422.27L1301.01 439.89C1299.82 441.668 1297.41 446.477 1295.45 447.754C1292.21 449.828 1287.82 448.073 1287.61 443.742C1287.07 436.995 1286.2 427.262 1285.36 418.691C1284.97 414.725 1281.71 413.152 1279.07 412.947C1273.01 411.875 1251.31 407.932 1251.31 407.932C1246.11 406.997 1245.07 400.364 1249.8 398.244C1249.8 398.244 1272.08 389.218 1275.13 387.257C1277.3 385.867 1278.59 384.112 1278.02 381.673L1274.86 361.272C1274.4 357.898 1272.35 351.447 1276.89 349.989C1283.1 347.367 1288.98 356.029 1292.3 360.109C1295.06 363.506 1303.69 374.834 1309.18 371.666C1316.22 368.52 1327.38 363.528 1334.42 360.383H1334.4Z" fill="#C54C17"/>
<path d="M1335.63 358.673C1340.36 356.553 1345.31 361.431 1342.87 365.785C1341.91 369.569 1325.4 388.944 1330.14 394.415C1333.78 398.609 1346.17 409.459 1351.02 415.203C1354.17 419.056 1349.98 424.002 1345.6 423.022L1317.84 418.007C1315.58 417.597 1313.24 418.577 1312.12 420.56L1302.24 438.18C1301.05 439.958 1298.64 444.768 1296.68 446.044C1293.44 448.119 1289.05 446.363 1288.84 442.033C1288.3 435.285 1287.43 425.552 1286.59 416.981C1286.2 413.015 1282.94 411.442 1280.3 411.237C1274.24 410.166 1252.54 406.222 1252.54 406.222C1247.34 405.288 1246.3 398.655 1251.03 396.535C1251.03 396.535 1273.31 387.508 1276.36 385.548C1278.53 384.157 1279.82 382.402 1279.25 379.963L1276.09 359.562C1275.63 356.189 1273.58 349.738 1278.12 348.279C1284.33 345.658 1290.21 354.319 1293.53 358.4C1296.29 361.796 1304.92 373.125 1310.41 369.956C1317.45 366.811 1328.61 361.819 1335.65 358.673H1335.63Z" fill="#FFD75A"/>
<path d="M1335.17 458.217C1298.27 474.72 1253.56 459.584 1235.27 424.39C1231.99 418.076 1229.81 411.533 1228.6 404.969C1229.72 412.035 1231.99 419.078 1235.52 425.871C1253.81 461.066 1298.52 476.224 1335.42 459.698C1365.69 446.158 1381.27 415.5 1375.8 385.502C1380.5 415.044 1364.94 444.905 1335.17 458.217Z" fill="white"/>
<path d="M927.061 430.385C958.333 399.156 972.66 340.164 959.039 298.587C945.419 257.01 909.045 248.644 877.773 279.873C846.501 311.101 832.174 370.116 845.772 411.67C859.369 453.225 895.766 461.59 927.038 430.362L927.061 430.385Z" fill="#FFD75A"/>
<path d="M922.141 417.209C948.448 390.927 960.497 341.281 949.063 306.314C937.606 271.325 906.995 264.281 880.688 290.563C854.381 316.845 842.31 366.492 853.766 401.458C865.223 436.425 895.834 443.469 922.141 417.187V417.209Z" fill="#C54C17"/>
<path d="M923.166 418.44C949.473 392.158 961.522 342.512 950.088 307.545C938.631 272.556 908.02 265.512 881.713 291.794C855.406 318.076 843.335 367.723 854.791 402.689C866.248 437.656 896.859 444.699 923.166 418.417V418.44Z" fill="url(#paint15_linear_0_38)"/>
<path d="M909.774 455.846C924.647 459.584 941.843 453.931 957.741 438.066C989.013 406.838 1003.34 347.846 989.719 306.269C983.023 285.799 970.815 273.399 956.397 269.775L925.717 262.07C940.112 265.695 952.343 278.095 959.039 298.564C972.637 340.119 958.333 399.133 927.061 430.362C911.163 446.227 893.967 451.88 879.094 448.141L909.774 455.846Z" fill="#FFB133"/>
<path d="M880.119 402.028C864.585 408.958 889.913 365.58 885.221 361.5C885.403 359.859 872.716 344.039 871.805 342.945C869.004 339.503 871.532 333.827 875.541 333.326L894.627 332.847C896.632 332.71 897.975 330.75 898.681 328.79L906.175 307.272C907.018 305.243 908.658 298.792 910.32 297.402C912.803 294.803 915.627 297.06 915.604 300.137C915.536 299.248 915.331 298.496 915.058 297.903C916.584 301.869 914.443 332.095 920.41 332.186C924.578 332.049 930.933 331.958 935.147 331.821L939.497 331.707C943.073 331.616 943.551 338.705 940.18 342.056L930.25 351.972C927.266 355.505 919.089 360.861 920.023 366.4L921.481 388.169C921.8 392.477 923.03 400.159 918.11 402.051C915.718 403.305 913.486 398.244 912.188 397.013C896.153 376.111 904.535 379.621 880.119 402.028Z" fill="#C54C17"/>
<path d="M877.864 401.8C862.33 408.73 887.658 365.352 882.966 361.272C883.148 359.631 870.461 343.811 869.55 342.717C866.749 339.275 869.277 333.599 873.286 333.098L892.372 332.619C894.377 332.482 895.721 330.522 896.427 328.562L903.92 307.044C904.763 305.015 906.403 298.564 908.065 297.174C910.548 294.575 913.372 296.832 913.35 299.909C913.281 299.02 913.076 298.268 912.803 297.675C914.329 301.641 912.188 331.867 918.155 331.958C922.324 331.821 928.678 331.73 932.892 331.593L937.242 331.479C940.818 331.388 941.296 338.477 937.926 341.828L927.995 351.744C925.011 355.277 916.834 360.634 917.768 366.173L919.226 387.941C919.545 392.249 920.775 399.931 915.855 401.823C913.463 403.077 911.231 398.016 909.933 396.785C893.898 375.883 902.28 379.393 877.864 401.8Z" fill="#FFD75A"/>
<path d="M947.81 307.34C959.267 342.307 947.218 391.953 920.889 418.235C909.523 429.587 897.338 434.715 886.268 434.054C897.953 435.604 911.004 430.59 923.143 418.463C949.45 392.181 961.499 342.535 950.065 307.568C943.551 287.691 930.865 276.864 916.311 275.998C929.931 277.798 941.661 288.512 947.81 307.34Z" fill="white"/>
<path d="M1164.76 186.575C1211.45 186.256 1244.68 225.348 1238.94 273.878C1233.2 322.43 1190.68 362.001 1143.98 362.32C1097.29 362.639 1064.08 323.547 1069.82 275.018C1075.56 226.488 1118.06 186.894 1164.78 186.575H1164.76Z" fill="#FFD75A"/>
<path d="M1163.07 200.844C1202.18 200.571 1230.01 233.304 1225.21 273.946C1220.4 314.612 1184.8 347.755 1145.67 348.028C1106.56 348.302 1078.75 315.569 1083.56 274.904C1088.36 234.261 1123.96 201.095 1163.07 200.844Z" fill="url(#paint16_linear_0_38)"/>
<path d="M1196.92 190.655C1184.34 180.694 1168.29 174.904 1150.18 175.018C1103.49 175.337 1060.96 214.931 1055.22 263.461C1051.72 293.208 1062.81 319.376 1082.67 335.127L1097.25 346.683C1077.39 330.932 1066.29 304.742 1069.8 275.018C1075.54 226.488 1118.04 186.894 1164.76 186.575C1182.86 186.461 1198.92 192.251 1211.49 202.212L1196.92 190.655Z" fill="#FFB133"/>
<path d="M1173.43 253.112C1171.2 253.112 1169.38 251.653 1168.95 249.442C1168.15 245.385 1163.82 223.069 1163.82 223.069C1162.77 217.735 1155.56 218.738 1154.01 223.137C1152.37 227.081 1144.35 245.294 1142.62 249.625C1140.36 255.186 1131.55 253.705 1125.99 253.796C1122.71 253.842 1114.83 253.363 1109.75 253.978C1105.22 254.503 1101.46 259.221 1106.02 262.982C1110.73 266.88 1117.5 272.419 1122.19 276.294C1125.92 278.847 1129.27 282.038 1127.04 286.985C1126.42 288.626 1115.47 312.811 1115.83 311.945C1113.92 315.66 1117.47 320.196 1121.48 318.692C1122.67 318.418 1127.72 314.543 1128.82 313.859C1132.69 312.4 1148.27 296.718 1152.71 301.345L1172.41 317.552C1175.94 320.401 1182.02 316.914 1181.18 312.446C1180.97 311.352 1171.43 283.634 1178.51 279.098L1202.09 262.617C1206.48 259.54 1205.21 252.907 1200.2 252.93C1192.73 252.975 1180.91 253.066 1173.46 253.112H1173.43Z" fill="#C54C17"/>
<path d="M1174.78 254.822C1172.55 254.822 1170.72 253.363 1170.29 251.152C1169.49 247.094 1165.17 224.779 1165.17 224.779C1164.12 219.445 1156.9 220.448 1155.35 224.847C1153.71 228.79 1145.69 247.003 1143.96 251.334C1141.71 256.896 1132.89 255.414 1127.33 255.505C1124.05 255.551 1116.17 255.072 1111.1 255.688C1106.56 256.212 1102.8 260.931 1107.36 264.692C1112.07 268.59 1118.84 274.129 1123.53 278.004C1127.27 280.557 1130.61 283.748 1128.38 288.694C1127.77 290.335 1116.81 314.52 1117.18 313.654C1115.26 317.37 1118.82 321.906 1122.83 320.401C1124.01 320.128 1129.07 316.253 1130.16 315.569C1134.03 314.11 1149.61 298.427 1154.05 303.055L1173.75 319.262C1177.28 322.111 1183.36 318.623 1182.52 314.156C1182.32 313.061 1172.77 285.343 1179.86 280.807L1203.43 264.327C1207.83 261.25 1206.55 254.617 1201.54 254.639C1194.07 254.685 1182.25 254.776 1174.8 254.822H1174.78Z" fill="#FFD75A"/>
<path d="M1221.06 239.641C1224.2 249.077 1225.34 259.586 1224.02 270.732C1219.22 311.397 1183.62 344.541 1144.49 344.814C1117.34 344.997 1095.63 329.268 1086.52 306.041C1094.83 331.046 1117.27 348.256 1145.67 348.051C1184.78 347.777 1220.4 314.634 1225.21 273.969C1226.66 261.546 1225.09 249.875 1221.06 239.641Z" fill="#C54C17"/>
<path d="M1083.56 274.904C1088.36 234.261 1123.96 201.095 1163.07 200.844C1183.16 200.708 1200.24 209.301 1211.49 223.16C1200.29 208.275 1182.61 198.998 1161.73 199.135C1122.62 199.408 1087.02 232.552 1082.21 273.194C1079.87 292.98 1085.27 310.85 1095.93 324.003C1086.18 311.033 1081.33 293.846 1083.58 274.904H1083.56Z" fill="white"/>
<path d="M1552.32 38.7759C1600.86 27.903 1644.25 61.0689 1649.21 112.881C1654.18 164.692 1618.85 215.501 1570.31 226.374C1521.78 237.247 1478.41 204.058 1473.45 152.247C1468.48 100.435 1503.78 49.6261 1552.32 38.7531V38.7759Z" fill="#FFD75A"/>
<path d="M1553.8 54.0254C1594.46 44.9076 1630.79 72.6941 1634.95 116.095C1639.12 159.495 1609.54 202.053 1568.88 211.148C1528.22 220.242 1491.9 192.456 1487.75 149.078C1483.58 105.7 1513.17 63.1432 1553.82 54.0254H1553.8Z" fill="url(#paint17_linear_0_38)"/>
<path d="M1586.71 35.767C1571.39 28.2221 1553.35 25.8287 1534.56 30.0456C1486.02 40.9186 1450.72 91.7274 1455.68 143.539C1458.73 175.292 1476.18 200.024 1500.41 211.945L1518.18 220.676C1493.95 208.754 1476.5 184.022 1473.45 152.269C1468.48 100.458 1503.78 49.6489 1552.32 38.7759C1571.13 34.5589 1589.17 36.9524 1604.48 44.4973L1586.71 35.767Z" fill="#FFB133"/>
<path d="M1576.35 106.088C1574.03 106.612 1571.8 105.472 1570.86 103.284C1569.13 99.2268 1559.56 76.9794 1559.56 76.9794C1557.29 71.6683 1549.98 74.3353 1549.36 79.2589C1548.54 83.7266 1544.3 104.492 1543.46 109.416C1542.37 115.73 1532.85 116.163 1527.09 117.531C1523.69 118.329 1515.38 119.605 1510.23 121.383C1505.65 122.956 1502.78 128.7 1508.39 131.595C1514.17 134.581 1522.46 138.821 1528.22 141.807C1532.67 143.63 1536.9 146.183 1535.67 151.836C1535.4 153.683 1529.45 181.31 1529.64 180.352C1528.47 184.638 1533.19 188.581 1537.04 186.096C1538.22 185.549 1542.6 180.375 1543.6 179.418C1547.29 177.024 1560 157.193 1565.65 161L1589.81 173.4C1594.14 175.565 1599.67 170.573 1597.78 166.106C1597.33 165.034 1581.13 138.319 1587.51 132.005L1608.33 109.53C1612.22 105.313 1609.38 98.7025 1604.16 99.865C1596.42 101.597 1584.12 104.356 1576.37 106.088H1576.35Z" fill="#C54C17"/>
<path d="M1578.15 107.57C1575.83 108.094 1573.59 106.954 1572.66 104.766C1570.93 100.708 1561.36 78.461 1561.36 78.461C1559.09 73.1499 1551.77 75.8169 1551.16 80.7405C1550.34 85.2082 1546.1 105.974 1545.26 110.898C1544.17 117.212 1534.65 117.645 1528.88 119.012C1525.49 119.81 1517.18 121.087 1512.03 122.865C1507.45 124.437 1504.58 130.182 1510.18 133.077C1515.97 136.063 1524.26 140.302 1530.02 143.288C1534.46 145.112 1538.7 147.665 1537.47 153.318C1537.2 155.164 1531.25 182.814 1531.44 181.834C1530.27 186.119 1534.99 190.063 1538.84 187.578C1540.02 187.031 1544.4 181.857 1545.4 180.899C1549.09 178.506 1561.8 158.675 1567.45 162.481L1591.61 174.882C1595.94 177.047 1601.47 172.055 1599.58 167.587C1599.13 166.516 1582.93 139.801 1589.31 133.487L1610.13 111.012C1614.02 106.795 1611.18 100.184 1605.96 101.347C1598.22 103.079 1585.92 105.837 1578.17 107.57H1578.15Z" fill="#FFD75A"/>
<path d="M1622.88 81.2876C1628.28 90.3825 1631.83 101.096 1632.97 112.972C1637.14 156.372 1607.55 198.93 1566.9 208.025C1538.68 214.339 1512.55 202.873 1497.82 180.762C1512.12 204.902 1539.34 217.758 1568.86 211.148C1609.51 202.053 1639.1 159.495 1634.93 116.095C1633.66 102.828 1629.37 91.0436 1622.88 81.3103V81.2876Z" fill="#C54C17"/>
<path d="M1487.73 149.055C1483.56 105.678 1513.15 63.1204 1553.8 54.0026C1574.69 49.3297 1594.41 54.3901 1609.24 66.2888C1594.23 53.3188 1573.73 47.6429 1552.03 52.521C1511.37 61.6159 1481.81 104.173 1485.95 147.574C1487.98 168.681 1497.63 186.096 1511.67 197.357C1498.59 186.074 1489.69 169.251 1487.75 149.055H1487.73Z" fill="white"/>
<path d="M878.593 80.5353C866.339 125.053 892.555 173.423 937.105 188.581C981.656 203.717 1027.71 179.919 1039.94 135.379C1052.2 90.8384 1026 42.4686 981.451 27.3331C936.9 12.1976 890.846 35.995 878.593 80.5353Z" fill="#FFD75A"/>
<path d="M891.735 85.0031C881.485 122.272 903.419 162.778 940.727 175.451C978.035 188.125 1016.57 168.203 1026.84 130.911C1037.09 93.6194 1015.18 53.1364 977.875 40.4399C940.567 27.7662 902.007 47.6885 891.757 84.9803L891.735 85.0031Z" fill="url(#paint18_linear_0_38)"/>
<path d="M941.501 174.243C904.194 161.57 882.26 121.064 892.509 83.7949C894.354 77.0934 897.11 70.9617 900.618 65.491C896.746 71.2808 893.693 77.8228 891.712 85.0258C881.462 122.295 903.396 162.801 940.704 175.474C971.316 185.868 1002.72 174.312 1018.71 149.261C1002.52 173.468 971.612 184.501 941.501 174.266V174.243Z" fill="#C54C17"/>
<path d="M906.744 38.5936L916.652 31.0942C936.9 15.7763 964.392 10.6704 991.359 19.8337C1035.91 34.9692 1062.1 83.339 1049.85 127.879C1045.02 145.454 1034.91 159.814 1021.7 169.821L1011.79 177.321C1025 167.314 1035.09 152.976 1039.94 135.379C1052.2 90.8384 1026 42.4686 981.451 27.3331C954.484 18.1697 926.97 23.2757 906.744 38.5936Z" fill="#FFB133"/>
<path d="M913.6 110.875C908.817 109.256 908.521 102.486 913.145 100.982C916.333 98.9077 940.955 96.0356 941.205 88.9693C941.365 83.567 939.725 67.5881 940.044 60.2483C940.34 55.4158 946.626 54.6408 949.109 58.2652L965.622 80.2846C966.965 82.0854 969.289 82.9287 971.407 82.2449L990.129 76.2044C992.134 75.7257 997.076 73.8794 999.308 74.2669C1003 74.9279 1004.98 79.0993 1002.25 82.3361C998.169 87.5104 992.338 95.0326 987.282 101.734C984.936 104.834 986.212 108.117 987.965 110.031C991.587 114.818 1004.48 132.051 1004.48 132.051C1007.58 136.177 1003.91 141.602 999.126 139.983C999.126 139.983 977.215 131.663 973.753 131.048C971.293 130.615 969.197 130.979 967.99 133.122L956.739 149.785C954.826 152.52 952.024 158.47 947.81 156.486C941.615 154.23 943.164 144.155 943.483 139.003C943.756 134.763 945.1 120.927 939.087 119.559C931.981 117.143 920.684 113.314 913.577 110.898L913.6 110.875Z" fill="#C54C17"/>
<path d="M911.596 111.285C906.813 109.667 906.517 102.897 911.14 101.392C914.329 99.318 938.95 96.4459 939.201 89.3796C939.36 83.9773 937.72 67.9984 938.039 60.6586C938.335 55.8262 944.622 55.0511 947.104 58.6755L963.617 80.6949C964.961 82.4957 967.284 83.3391 969.403 82.6552L988.125 76.6147C990.129 76.136 995.072 74.2897 997.304 74.6772C1000.99 75.3382 1002.98 79.5096 1000.24 82.7464C996.165 87.9207 990.334 95.4429 985.278 102.144C982.932 105.245 984.207 108.527 985.961 110.442C989.582 115.229 1002.47 132.461 1002.47 132.461C1005.57 136.587 1001.9 142.012 997.122 140.394C997.122 140.394 975.211 132.074 971.749 131.458C969.289 131.025 967.193 131.39 965.986 133.532L954.734 150.195C952.821 152.93 950.02 158.88 945.806 156.897C939.611 154.64 941.16 144.565 941.479 139.413C941.752 135.174 943.096 121.337 937.083 119.97C929.977 117.554 918.679 113.724 911.573 111.308L911.596 111.285Z" fill="#FFD75A"/>
<path d="M977.853 40.4627C1015.16 53.1364 1037.07 93.6422 1026.82 130.934C1024.98 137.635 1022.22 143.767 1018.71 149.238C1022.59 143.448 1025.64 136.906 1027.62 129.703C1037.87 92.4112 1015.96 51.9283 978.65 39.2318C948.038 28.8375 916.607 40.3943 900.64 65.4682C916.857 41.2377 947.765 30.228 977.853 40.4627Z" fill="white"/>
<path d="M310.205 605.4C332.162 574.833 385.595 567.949 429.6 590.037C473.604 612.125 491.46 654.819 469.504 685.363C447.547 715.931 394.114 722.792 350.11 700.704C306.128 678.616 288.249 635.945 310.205 605.377V605.4Z" fill="#FFD75A"/>
<path d="M323.393 612.011C341.705 586.504 386.324 580.759 423.017 599.2C459.733 617.641 474.651 653.246 456.316 678.753C437.981 704.26 393.408 710.004 356.669 691.563C319.953 673.123 305.058 637.518 323.37 612.011H323.393Z" fill="url(#paint19_linear_0_38)"/>
<path d="M436.524 565.1C392.542 543.012 339.086 549.896 317.129 580.463C313.553 585.432 311.048 590.743 309.522 596.214L302.598 621.151C304.124 615.681 306.629 610.369 310.205 605.4C332.162 574.833 385.595 567.949 429.6 590.037C466.429 608.523 484.946 641.461 477.134 669.612L484.058 644.675C491.87 616.501 473.376 583.586 436.524 565.1Z" fill="#FFB133"/>
<path d="M392.702 605.104C395.048 601.844 402.063 603.508 402.928 607.543C404.591 611.19 405.73 632.161 411.242 632.845C412.198 634.007 436.615 639.09 440.464 639.866C445.452 640.914 446.09 646.521 441.671 647.661L416.685 654.386C414.749 654.91 413.428 656.392 413.838 658.352L418.485 679.961C419.259 684.657 412.244 685.249 409.306 682.446C406.982 680.234 390.378 661.406 382.908 663.503C377.487 664.985 357.922 670.228 357.922 670.228C353.253 671.481 348.196 667.105 350.542 663.822C350.542 663.822 359.357 651.81 360.906 649.644C362.728 647.114 363.889 642.601 361.247 640.709L346.534 627.921C343.914 625.71 338.516 622.017 340.931 619.054C343.641 615.703 349.449 618.188 353.321 619.123C357.33 620.08 370.198 623.18 374.435 624.137C379.286 625.665 381.359 620.65 383.591 617.778C385.459 615.202 390.879 607.611 392.679 605.104H392.702Z" fill="#C54C17"/>
<path d="M393.271 607.155C395.617 603.896 402.632 605.56 403.498 609.594C405.16 613.242 406.299 634.212 411.811 634.896C412.768 636.059 437.184 641.142 441.033 641.917C446.021 642.966 446.659 648.573 442.241 649.713L417.255 656.437C415.319 656.961 413.998 658.443 414.408 660.403L419.054 682.012C419.828 686.708 412.813 687.301 409.875 684.497C407.552 682.286 390.948 663.458 383.477 665.555C378.056 667.036 358.491 672.279 358.491 672.279C353.822 673.533 348.766 669.156 351.112 665.874C351.112 665.874 359.926 653.861 361.475 651.696C363.297 649.166 364.459 644.652 361.817 642.76L347.103 629.973C344.484 627.762 339.086 624.069 341.5 621.106C344.21 617.755 350.018 620.239 353.89 621.174C357.899 622.131 370.768 625.231 375.004 626.189C379.856 627.716 381.928 622.701 384.16 619.829C386.028 617.253 391.449 609.663 393.248 607.155H393.271Z" fill="#FFD75A"/>
<path d="M455.77 676.701C437.457 702.208 392.861 707.952 356.123 689.512C335.738 679.277 322.072 663.731 317.106 647.57C321.525 664.461 335.464 680.895 356.715 691.563C393.43 710.004 438.05 704.26 456.362 678.753C464.516 667.424 466.065 654.066 462.079 641.142C465.29 653.428 463.491 665.965 455.77 676.701Z" fill="#C54C17"/>
<path d="M422.448 597.126C385.732 578.685 341.136 584.429 322.823 609.936C314.692 621.265 313.121 634.6 317.106 647.547C313.895 635.261 315.694 622.747 323.416 612.011C341.728 586.504 386.347 580.759 423.04 599.2C443.425 609.435 457.091 624.981 462.079 641.142C457.66 624.251 443.721 607.816 422.47 597.126H422.448Z" fill="white"/>
<path d="M1023.54 847.477C999.741 821.081 1004.11 770.318 1033.31 734.098C1062.51 697.877 1105.47 689.922 1129.25 716.341C1153.05 742.737 1148.65 793.5 1119.45 829.72C1090.25 865.941 1047.32 873.896 1023.52 847.477H1023.54Z" fill="#FFD75A"/>
<path d="M1032.29 836.627C1012.43 814.585 1016.07 772.233 1040.44 742.007C1064.81 711.782 1100.66 705.149 1120.5 727.191C1140.36 749.233 1136.7 791.585 1112.35 821.811C1087.98 852.036 1052.15 858.669 1032.29 836.627Z" fill="url(#paint20_linear_0_38)"/>
<path d="M1011.7 722.701C982.499 758.921 978.149 809.684 1001.93 836.08C1005.8 840.388 1010.17 843.762 1014.93 846.269L1036.55 857.666C1031.81 855.159 1027.41 851.763 1023.54 847.477C999.741 821.081 1004.11 770.318 1033.31 734.098C1057.75 703.781 1091.85 693.273 1116.24 706.152L1094.63 694.755C1070.21 681.876 1036.14 692.384 1011.7 722.701Z" fill="#FFB133"/>
<path d="M1039.8 771.207C1037.25 768.381 1040.19 762.249 1044.11 762.249C1047.8 761.428 1067.36 764.597 1069.12 759.628C1070.39 758.967 1079.96 737.426 1081.44 734.029C1083.42 729.63 1088.71 730.154 1088.89 734.485L1090.07 758.921C1090.16 760.813 1091.28 762.317 1093.17 762.34L1114.03 762.386C1118.52 762.614 1117.65 769.201 1114.47 771.367C1111.96 773.076 1091.28 784.656 1091.69 791.95C1091.96 797.261 1092.87 816.386 1092.87 816.386C1093.1 820.967 1088.05 824.751 1085.49 821.925C1085.49 821.925 1076.18 811.371 1074.49 809.502C1072.51 807.314 1068.59 805.33 1066.32 807.382L1051.58 818.414C1049.01 820.398 1044.54 824.637 1042.29 821.834C1039.74 818.665 1043.2 813.787 1044.84 810.391C1046.52 806.88 1051.97 795.597 1053.7 791.882C1056.09 787.71 1051.88 784.793 1049.67 782.148C1047.66 779.915 1041.74 773.373 1039.8 771.207Z" fill="#C54C17"/>
<path d="M1041.83 771.093C1039.28 768.267 1042.22 762.135 1046.14 762.135C1049.83 761.314 1069.39 764.483 1071.15 759.514C1072.42 758.853 1081.99 737.312 1083.47 733.915C1085.45 729.516 1090.73 730.04 1090.92 734.371L1092.1 758.807C1092.19 760.699 1093.31 762.203 1095.2 762.226L1116.06 762.272C1120.55 762.5 1119.68 769.087 1116.49 771.253C1113.99 772.962 1093.31 784.542 1093.72 791.836C1094.01 797.147 1094.9 816.272 1094.9 816.272C1095.13 820.853 1090.07 824.637 1087.52 821.811C1087.52 821.811 1078.21 811.257 1076.52 809.388C1074.54 807.2 1070.62 805.217 1068.34 807.268L1053.61 818.3C1051.03 820.284 1046.57 824.523 1044.31 821.72C1041.76 818.551 1045.23 813.673 1046.87 810.277C1048.55 806.766 1053.99 795.483 1055.73 791.768C1058.12 787.596 1053.9 784.679 1051.69 782.034C1049.69 779.801 1043.77 773.259 1041.83 771.093Z" fill="#FFD75A"/>
<path d="M1118.47 727.305C1138.34 749.347 1134.67 791.699 1110.32 821.925C1096.79 838.701 1079.71 848.207 1063.81 849.574C1080.28 848.868 1098.23 839.317 1112.35 821.811C1136.72 791.585 1140.36 749.21 1120.5 727.191C1111.66 717.389 1099.68 713.286 1086.95 714.358C1098.93 713.856 1110.12 718.028 1118.47 727.305Z" fill="#C54C17"/>
<path d="M1038.42 742.121C1014.04 772.347 1010.4 814.699 1030.26 836.741C1039.1 846.543 1051.08 850.646 1063.81 849.574C1051.83 850.076 1040.65 845.905 1032.29 836.627C1012.43 814.585 1016.07 772.233 1040.44 742.007C1053.97 725.208 1071.05 715.725 1086.95 714.358C1070.48 715.042 1052.51 724.615 1038.42 742.121Z" fill="white"/>
<path d="M-46.0877 109.188C-14.2233 127.811 36.4544 126.831 67.1115 106.977C97.7687 87.1229 96.7665 55.9173 64.9022 37.2943C33.0379 18.6712 -17.6626 19.6514 -48.3197 39.5053C-78.9769 59.3593 -77.9748 90.5649 -46.0877 109.188Z" fill="#FFD75A"/>
<path d="M-36.5215 102.395C-9.71358 118.078 32.924 117.234 58.7298 100.526C84.5356 83.8177 83.6928 57.5585 56.8849 41.876C30.077 26.1934 -12.5834 27.0368 -38.3664 43.7451C-64.1494 60.4534 -63.3067 86.7126 -36.4988 102.395H-36.5215Z" fill="#C54C17"/>
<path d="M-37.2959 103.489C-10.488 119.172 32.1496 118.329 57.9554 101.62C83.7612 84.9119 82.9184 58.6527 56.1105 42.9701C29.3026 27.2875 -13.3578 28.1309 -39.1408 44.8392C-64.9238 61.5475 -64.0811 87.8068 -37.2732 103.489H-37.2959Z" fill="url(#paint21_linear_0_38)"/>
<path d="M-70.3446 100.64C-70.1852 113.451 -61.9629 126.17 -45.7688 135.63C-13.9045 154.253 36.7732 153.272 67.4304 133.418C82.5085 123.64 89.9336 111.125 89.7969 98.7025L89.4781 72.261C89.6375 84.6839 82.2124 97.1981 67.1115 106.977C36.4544 126.831 -14.2233 127.834 -46.0877 109.188C-62.2817 99.7283 -70.5041 87.009 -70.6635 74.1985L-70.3446 100.64Z" fill="#FFB133"/>
<path d="M-33.1962 65.1947C-42.1018 54.1166 -1.67349 65.3542 0.604156 60.6814C1.97075 60.4762 12.038 46.8452 12.7213 45.8878C14.9078 42.8789 20.0325 43.7223 21.2852 46.868L25.7266 62.1858C26.2733 63.7586 28.1409 64.4653 29.872 64.602L48.8448 66.0837C50.6669 66.3344 56.2244 66.266 57.6821 67.3374C60.3014 68.7962 59.0942 71.5543 56.5888 72.1926C57.2949 71.9418 57.8415 71.6227 58.2743 71.2808C55.4044 73.3551 30.5325 78.0508 31.7397 82.906C32.7418 86.234 34.1767 91.3627 35.1789 94.7363L36.1811 98.2238C37.0238 101.096 31.398 102.988 27.9815 100.982L17.8688 95.0782C14.384 93.4142 8.30263 87.9435 4.04341 89.8811L-13.2212 95.6937C-16.6149 96.879 -22.5595 99.5003 -25.1561 95.9216C-26.6821 94.2348 -23.0834 91.3855 -22.3318 90.0634C-8.87086 72.6485 -9.91858 80.1706 -33.2189 65.2175L-33.1962 65.1947Z" fill="#C54C17"/>
<path d="M-33.515 63.3027C-42.4206 52.2246 -1.99236 63.4623 0.285294 58.7894C1.65189 58.5843 11.7191 44.9532 12.4024 43.9958C14.5889 40.987 19.7137 41.8304 20.9664 44.976L25.4078 60.2939C25.9544 61.8667 27.8221 62.5733 29.5531 62.7101L48.5259 64.1917C50.3481 64.4425 55.9055 64.3741 57.3632 65.4454C59.9825 66.9043 58.7753 69.6624 56.2699 70.3006C56.976 70.0499 57.5226 69.7308 57.9554 69.3889C55.0856 71.4632 30.2136 76.1588 31.4208 81.014C32.4229 84.342 33.8578 89.4708 34.86 92.8444L35.8622 96.3319C36.7049 99.204 31.0791 101.096 27.6627 99.09L17.5499 93.1863C14.0651 91.5223 7.98376 86.0516 3.72455 87.9891L-13.54 93.8017C-16.9337 94.987 -22.8784 97.6084 -25.4749 94.0296C-27.001 92.3429 -23.4023 89.4936 -22.6506 88.1715C-9.18974 70.7565 -10.2374 78.2787 -33.5378 63.3255L-33.515 63.3027Z" fill="#FFD75A"/>
<path d="M57.6365 99.7511C31.8535 116.459 -10.7841 117.303 -37.6148 101.62C-49.208 94.8503 -55.9271 86.0972 -57.772 77.0022C-56.5193 86.7582 -49.7091 96.2635 -37.3187 103.489C-10.5108 119.172 32.1268 118.329 57.9326 101.62C72.5779 92.1377 78.6364 79.5552 76.2221 67.5881C77.6798 78.9853 71.5074 90.7473 57.6365 99.7511Z" fill="white"/>
<path d="M1331.94 815.816C1294.42 843.579 1285.08 898.4 1311.07 938.29C1337.06 978.158 1388.51 987.982 1426.03 960.241C1463.54 932.478 1472.88 877.657 1446.89 837.79C1420.9 797.922 1369.43 788.075 1331.91 815.839L1331.94 815.816Z" fill="#FFD75A"/>
<path d="M1339.59 827.555C1308.18 850.783 1300.37 896.691 1322.12 930.084C1343.87 963.478 1386.96 971.707 1418.37 948.457C1449.78 925.206 1457.59 879.321 1435.84 845.927C1414.09 812.533 1371 804.305 1339.59 827.555Z" fill="url(#paint22_linear_0_38)"/>
<path d="M1323.53 929.629C1301.78 896.235 1309.59 850.327 1341 827.099C1346.65 822.928 1352.66 819.782 1358.88 817.594C1352.18 819.782 1345.67 823.087 1339.61 827.578C1308.2 850.805 1300.39 896.713 1322.14 930.107C1340 957.506 1372.18 967.946 1400.52 957.985C1372.52 967.125 1341.09 956.572 1323.53 929.629Z" fill="#C54C17"/>
<path d="M1380.47 800.042L1393.05 800.27C1418.69 800.726 1443.75 813.856 1459.48 837.995C1485.47 877.862 1476.13 932.683 1438.62 960.447C1423.82 971.411 1406.83 976.517 1390.08 976.22L1377.51 975.992C1394.25 976.289 1411.24 971.183 1426.05 960.219C1463.56 932.455 1472.9 877.634 1446.91 837.767C1431.2 813.628 1406.12 800.498 1380.47 800.042Z" fill="#FFB133"/>
<path d="M1340.84 861.792C1338.06 857.507 1342.03 851.945 1346.65 853.632C1350.48 853.974 1371.86 867.081 1376.44 861.61C1379.95 857.416 1388.6 843.671 1393.43 838.04C1396.69 834.393 1402.16 837.699 1401.88 842.121L1401.29 869.953C1401.24 872.209 1402.54 874.352 1404.66 875.127L1423.32 882.034C1425.23 882.9 1430.29 884.518 1431.83 886.228C1434.36 889.054 1433.34 893.591 1429.12 894.48C1422.65 896.052 1413.32 898.4 1405.12 900.543C1401.31 901.546 1400.29 904.942 1400.49 907.564C1400.4 913.627 1399.9 935.395 1399.9 935.395C1399.79 940.615 1393.5 942.644 1390.7 938.359C1390.7 938.359 1378.47 918.049 1376.1 915.382C1374.41 913.49 1372.5 912.487 1370.22 913.444L1350.89 919.667C1347.67 920.647 1341.73 923.634 1339.61 919.417C1336.1 913.764 1343.6 906.697 1347.08 902.822C1349.95 899.608 1359.63 889.442 1355.71 884.609C1351.57 878.25 1344.99 868.152 1340.84 861.77V861.792Z" fill="#C54C17"/>
<path d="M1338.97 860.88C1336.2 856.595 1340.16 851.033 1344.78 852.72C1348.61 853.062 1370 866.169 1374.57 860.698C1378.08 856.504 1386.74 842.759 1391.57 837.129C1394.82 833.482 1400.29 836.787 1400.02 841.209L1399.42 869.041C1399.38 871.298 1400.68 873.44 1402.79 874.215L1421.45 881.122C1423.36 881.988 1428.42 883.607 1429.97 885.316C1432.49 888.143 1431.47 892.679 1427.26 893.568C1420.79 895.141 1411.45 897.488 1403.25 899.631C1399.45 900.634 1398.42 904.03 1398.63 906.652C1398.53 912.715 1398.03 934.484 1398.03 934.484C1397.92 939.704 1391.63 941.732 1388.83 937.447C1388.83 937.447 1376.6 917.137 1374.23 914.47C1372.55 912.578 1370.63 911.575 1368.36 912.533L1349.02 918.756C1345.81 919.736 1339.86 922.722 1337.74 918.505C1334.24 912.852 1341.73 905.786 1345.21 901.91C1348.08 898.697 1357.76 888.53 1353.85 883.698C1349.7 877.338 1343.12 867.24 1338.97 860.858V860.88Z" fill="#FFD75A"/>
<path d="M1435.84 845.95C1457.59 879.344 1449.78 925.229 1418.37 948.48C1412.72 952.651 1406.71 955.797 1400.52 957.985C1407.21 955.797 1413.7 952.491 1419.79 948.001C1451.19 924.751 1459.01 878.865 1437.25 845.471C1419.4 818.072 1387.19 807.633 1358.86 817.594C1386.85 808.453 1418.3 819.007 1435.87 845.95H1435.84Z" fill="white"/>
</g>
</g>
<defs>
<linearGradient id="paint0_linear_0_38" x1="720.08" y1="0" x2="720.08" y2="500" gradientUnits="userSpaceOnUse">
<stop stop-color="white"/>
<stop offset="0.494792" stop-color="#FFF0C9"/>
<stop offset="1" stop-color="#FFD25E"/>
</linearGradient>
<linearGradient id="paint1_linear_0_38" x1="241.621" y1="980.49" x2="-282.424" y2="1541.41" gradientUnits="userSpaceOnUse">
<stop stop-color="#FFB133"/>
<stop offset="0.31" stop-color="#FFBC4A"/>
<stop offset="1" stop-color="#FFB133"/>
</linearGradient>
<linearGradient id="paint2_linear_0_38" x1="2730.41" y1="519.548" x2="2992.24" y2="914.494" gradientUnits="userSpaceOnUse">
<stop stop-color="#FFB133"/>
<stop offset="0.31" stop-color="#FFBC4A"/>
<stop offset="1" stop-color="#FFB133"/>
</linearGradient>
<linearGradient id="paint3_linear_0_38" x1="1896.93" y1="1466.56" x2="1716.01" y2="447.007" gradientUnits="userSpaceOnUse">
<stop stop-color="#FFB133"/>
<stop offset="0.31" stop-color="#FFBC4A"/>
<stop offset="1" stop-color="#FFB133"/>
</linearGradient>
<linearGradient id="paint4_linear_0_38" x1="-1948.8" y1="486.831" x2="-611.825" y2="1440.13" gradientUnits="userSpaceOnUse">
<stop stop-color="#FFB133"/>
<stop offset="0.31" stop-color="#FFBC4A"/>
<stop offset="1" stop-color="#FFB133"/>
</linearGradient>
<linearGradient id="paint5_linear_0_38" x1="-67.7262" y1="501.003" x2="1587.74" y2="823.612" gradientUnits="userSpaceOnUse">
<stop stop-color="#FFB133"/>
<stop offset="0.31" stop-color="#FFBC4A"/>
<stop offset="1" stop-color="#FFB133"/>
</linearGradient>
<linearGradient id="paint6_linear_0_38" x1="-441.481" y1="195.143" x2="550.26" y2="1208.58" gradientUnits="userSpaceOnUse">
<stop stop-color="#FFB133"/>
<stop offset="0.31" stop-color="#FFBC4A"/>
<stop offset="1" stop-color="#FFB133"/>
</linearGradient>
<linearGradient id="paint7_linear_0_38" x1="-138.08" y1="1291.69" x2="1029.36" y2="320.179" gradientUnits="userSpaceOnUse">
<stop stop-color="#FFB133"/>
<stop offset="0.31" stop-color="#FFBC4A"/>
<stop offset="1" stop-color="#FFB133"/>
</linearGradient>
<linearGradient id="paint8_linear_0_38" x1="1421.97" y1="104.103" x2="717.928" y2="1245.83" gradientUnits="userSpaceOnUse">
<stop stop-color="#FFB133"/>
<stop offset="0.31" stop-color="#FFBC4A"/>
<stop offset="1" stop-color="#FFB133"/>
</linearGradient>
<linearGradient id="paint9_linear_0_38" x1="-709.395" y1="349.242" x2="498.448" y2="1234.77" gradientUnits="userSpaceOnUse">
<stop stop-color="#FFB133"/>
<stop offset="0.31" stop-color="#FFBC4A"/>
<stop offset="1" stop-color="#FFB133"/>
</linearGradient>
<linearGradient id="paint10_linear_0_38" x1="557.733" y1="1319" x2="-826.565" y2="1734.58" gradientUnits="userSpaceOnUse">
<stop stop-color="#FFB133"/>
<stop offset="0.31" stop-color="#FFBC4A"/>
<stop offset="1" stop-color="#FFB133"/>
</linearGradient>
<linearGradient id="paint11_linear_0_38" x1="3069.72" y1="4.84257" x2="4352.98" y2="-553.364" gradientUnits="userSpaceOnUse">
<stop stop-color="#FFB133"/>
<stop offset="0.31" stop-color="#FFBC4A"/>
<stop offset="1" stop-color="#FFB133"/>
</linearGradient>
<linearGradient id="paint12_linear_0_38" x1="2286.83" y1="743.035" x2="2322.98" y2="1785.9" gradientUnits="userSpaceOnUse">
<stop stop-color="#FFB133"/>
<stop offset="0.31" stop-color="#FFBC4A"/>
<stop offset="1" stop-color="#FFB133"/>
</linearGradient>
<linearGradient id="paint13_linear_0_38" x1="-10.4644" y1="-174.172" x2="378.289" y2="991.798" gradientUnits="userSpaceOnUse">
<stop stop-color="#FFB133"/>
<stop offset="0.31" stop-color="#FFBC4A"/>
<stop offset="1" stop-color="#FFB133"/>
</linearGradient>
<linearGradient id="paint14_linear_0_38" x1="-575.444" y1="-475.416" x2="-206.067" y2="695.891" gradientUnits="userSpaceOnUse">
<stop stop-color="#FFB133"/>
<stop offset="0.31" stop-color="#FFBC4A"/>
<stop offset="1" stop-color="#FFB133"/>
</linearGradient>
<linearGradient id="paint15_linear_0_38" x1="-533.332" y1="602.428" x2="-1579.97" y2="-400.679" gradientUnits="userSpaceOnUse">
<stop stop-color="#FFB133"/>
<stop offset="0.31" stop-color="#FFBC4A"/>
<stop offset="1" stop-color="#FFB133"/>
</linearGradient>
<linearGradient id="paint16_linear_0_38" x1="132.151" y1="-464.861" x2="119.637" y2="578.008" gradientUnits="userSpaceOnUse">
<stop stop-color="#FFB133"/>
<stop offset="0.31" stop-color="#FFBC4A"/>
<stop offset="1" stop-color="#FFB133"/>
</linearGradient>
<linearGradient id="paint17_linear_0_38" x1="1584.26" y1="604.141" x2="1709.75" y2="1613.85" gradientUnits="userSpaceOnUse">
<stop stop-color="#FFB133"/>
<stop offset="0.31" stop-color="#FFBC4A"/>
<stop offset="1" stop-color="#FFB133"/>
</linearGradient>
<linearGradient id="paint18_linear_0_38" x1="511.974" y1="1223.94" x2="777.605" y2="89.5932" gradientUnits="userSpaceOnUse">
<stop stop-color="#FFB133"/>
<stop offset="0.31" stop-color="#FFBC4A"/>
<stop offset="1" stop-color="#FFB133"/>
</linearGradient>
<linearGradient id="paint19_linear_0_38" x1="-1107.26" y1="510.117" x2="76.1481" y2="1383.22" gradientUnits="userSpaceOnUse">
<stop stop-color="#FFB133"/>
<stop offset="0.31" stop-color="#FFBC4A"/>
<stop offset="1" stop-color="#FFB133"/>
</linearGradient>
<linearGradient id="paint20_linear_0_38" x1="112.476" y1="1177.74" x2="780.068" y2="33.0607" gradientUnits="userSpaceOnUse">
<stop stop-color="#FFB133"/>
<stop offset="0.31" stop-color="#FFBC4A"/>
<stop offset="1" stop-color="#FFB133"/>
</linearGradient>
<linearGradient id="paint21_linear_0_38" x1="321.303" y1="1123.81" x2="1432.24" y2="-58.6138" gradientUnits="userSpaceOnUse">
<stop stop-color="#FFB133"/>
<stop offset="0.31" stop-color="#FFBC4A"/>
<stop offset="1" stop-color="#FFB133"/>
</linearGradient>
<linearGradient id="paint22_linear_0_38" x1="-498.854" y1="1527.53" x2="531.723" y2="497.756" gradientUnits="userSpaceOnUse">
<stop stop-color="#FFB133"/>
<stop offset="0.31" stop-color="#FFBC4A"/>
<stop offset="1" stop-color="#FFB133"/>
</linearGradient>
</defs>
</svg>
