<svg width="126" height="48" viewBox="0 0 126 48" fill="none" xmlns="http://www.w3.org/2000/svg">
<g clip-path="url(#clip0_1_321)">
<path d="M0.0104569 8.44812C0.162157 11.5711 2.19703 14.3906 5.11595 15.51C6.63818 16.0959 8.18657 16.0384 9.78204 16.0331C11.5187 16.0227 13.2607 16.0174 14.9974 16.007C15.2851 16.007 15.5728 16.007 15.8605 16.007C15.9599 16.007 16.1639 16.0488 16.2581 16.007C16.3418 15.9704 16.4307 15.782 16.4882 15.7036C16.7132 15.3897 16.9381 15.0811 17.163 14.7672C17.6234 14.1343 18.0837 13.4961 18.544 12.8631C19.2816 11.8431 19.041 10.9904 19.2607 9.74542C19.3287 9.35833 19.3287 8.63644 19.3391 8.24411C19.3705 8.5109 19.1194 10.9119 19.1194 11.184C19.1299 11.9477 19.2188 10.891 19.2293 11.6548C19.2607 14.1656 19.3915 16.415 19.4228 18.9259C19.4595 21.9494 19.3862 24.973 19.4228 27.9965C19.4542 30.6277 19.3915 33.2589 19.4228 35.8849C19.4385 37.1561 16.6295 38.4429 16.6922 39.714C16.6922 39.7297 21.5414 39.9651 20.558 39.9651C20.5998 38.5318 21.0078 36.9207 21.7768 35.7123C22.0593 35.2677 22.3784 34.8492 22.687 34.4255C23.3252 33.5362 23.9791 32.6417 24.612 31.7524C25.5275 30.4603 26.4638 29.184 27.3845 27.9024C29.1996 25.381 31.0148 22.8649 32.83 20.3435C34.3731 18.1988 35.9215 16.0541 37.4647 13.9093C37.7629 13.4961 38.061 13.0828 38.3592 12.6696C39.6983 10.7969 40.1901 8.42197 39.667 6.17262C39.1125 3.7925 37.4542 1.76286 35.2363 0.737576C34.0541 0.193548 32.8091 0 31.5275 0C29.4612 0.00523104 27.4002 0.0156931 25.3339 0.0209241C22.143 0.0313862 18.9573 0.0418483 15.7663 0.0523104C13.4281 0.0575414 11.0898 0.0680035 8.74629 0.0732345C7.99302 0.0732345 7.25021 0.0732345 6.50741 0.214473C3.99651 0.680035 1.81516 2.38535 0.737571 4.70793C0.198774 5.86922 -0.0523156 7.16652 0.0104569 8.44812Z" fill="url(#paint0_linear_1_321)"/>
<path d="M40.8178 39.5571C40.6661 36.4342 38.6312 33.6146 35.7123 32.4952C34.4359 32.0035 33.1386 31.9669 31.8152 31.9669H24.4499L24.4237 32.0035L22.6765 34.4307C22.4621 34.7027 22.2738 34.9695 22.1011 35.231C22.0854 35.2467 22.0697 35.2677 22.0541 35.2833C22.0331 35.3147 22.007 35.3566 21.9808 35.4089C20.6888 37.4385 20.5371 39.0706 20.5371 39.6931L19.3287 8.27027C19.2973 9.86051 18.7951 11.4403 17.8326 12.7794L15.442 16.0122H15.4368C15.3792 16.0959 15.3165 16.1796 15.2537 16.2633C14.3383 17.5554 13.4019 18.8317 12.4813 20.1133C10.6661 22.6347 8.85091 25.1508 7.03574 27.6722C5.49259 29.8169 3.9442 31.9616 2.40104 34.1064C2.10287 34.5196 1.8047 34.9329 1.50654 35.3461C0.16739 37.2188 -0.324328 39.5937 0.198776 41.8431C0.753266 44.2232 2.4115 46.2528 4.62946 47.2781C5.80645 47.8221 7.05143 48.0157 8.33304 48.0105C10.3993 48.0052 12.4603 47.9948 14.5266 47.9895C17.7175 47.9791 20.9032 47.9686 24.0942 47.9582C26.4324 47.9529 28.7707 47.9425 31.1142 47.9372C31.8675 47.9372 33.5728 47.9372 34.3156 47.796C36.8317 47.3252 39.0131 45.6251 40.0907 43.3025C40.6295 42.136 40.8806 40.8439 40.8178 39.5623V39.5571Z" fill="url(#paint1_linear_1_321)"/>
<path style="mix-blend-mode:multiply" d="M22.0854 35.2467C20.333 37.6896 20.0924 40.9067 21.4629 43.585C22.8335 46.2633 25.585 47.9425 28.5824 47.932L33.4472 47.9006C37.5327 47.5397 40.7341 44.0976 40.7236 39.9076C40.7236 39.6617 40.7132 39.4159 40.687 39.17C40.3051 35.095 36.8788 31.9093 32.7201 31.9198L24.4551 31.9564L22.0854 35.2415V35.2467Z" fill="url(#paint2_linear_1_321)"/>
<path style="mix-blend-mode:multiply" d="M22.0854 35.2467C20.333 37.6896 20.0924 40.9067 21.4629 43.585C22.8335 46.2633 25.585 47.9425 28.5824 47.932L31.5902 47.9111C18.973 43.6896 24.4551 31.9616 24.4551 31.9616L22.0854 35.2467Z" fill="url(#paint3_linear_1_321)"/>
<path style="mix-blend-mode:multiply" d="M28.5824 47.932L29.864 47.9215C29.7071 47.8692 29.5501 47.8169 29.3932 47.7698C16.6713 43.6582 23.503 33.3112 24.3714 32.082L22.0907 35.2467C20.3383 37.6896 20.0976 40.9067 21.4682 43.585C22.8387 46.2633 25.5902 47.9425 28.5876 47.932H28.5824Z" fill="url(#paint4_linear_1_321)"/>
<path style="mix-blend-mode:multiply" d="M3.14908 7.54839C2.8666 11.9477 6.18308 15.7454 10.5615 16.0279L15.442 16.0017L17.8326 12.769C19.5222 10.415 19.8047 7.31822 18.5702 4.69224C17.3409 2.07149 14.7881 0.324327 11.9058 0.13601L11.0532 0.0784683C6.91019 0.0889304 3.42632 3.32694 3.15431 7.54839H3.14908Z" fill="url(#paint5_linear_1_321)"/>
<path style="mix-blend-mode:multiply" d="M15.4473 16.007L17.8378 12.7742C19.5275 10.4202 19.8099 7.32346 18.5754 4.69747C17.3409 2.07149 14.7881 0.324327 11.9058 0.13601L11.0532 0.0784683C9.91281 0.0784683 8.82999 0.329558 7.84132 0.774196C21.3165 6.46557 16.3784 14.6417 15.4473 16.0017V16.007Z" fill="url(#paint6_linear_1_321)"/>
<path style="mix-blend-mode:multiply" d="M17.8274 12.6853C19.5222 10.3313 19.8099 7.23452 18.5702 4.61377C17.3304 1.98256 14.762 0.240625 11.864 0.0523071C21.5676 4.74455 17.8849 12.3348 16.0488 15.1543L17.8274 12.6853Z" fill="url(#paint7_linear_1_321)"/>
<path style="mix-blend-mode:multiply" opacity="0.6" d="M19.3391 8.23888L20.6051 40.5092C20.6051 40.5092 20.4167 38.3174 21.2851 36.6748C22.1534 35.0323 25.2973 30.7794 25.2973 30.7794L19.3444 8.23888H19.3391Z" fill="url(#paint8_linear_1_321)"/>
<path style="mix-blend-mode:multiply" d="M20.469 36.0366L22.2424 29.6757L19.3287 8.25458L20.3854 36.3086L20.469 36.0366Z" fill="url(#paint9_linear_1_321)"/>
<path d="M60.6905 12.7847V16.0645L53.6914 32.8718H60.6905V36.2197H49.9093V32.9398L56.9085 16.1325H50.2493V12.7847H60.6957H60.6905Z" fill="black"/>
<path d="M66.3819 12.7847V30.8631C66.3819 32.537 67.1194 33.1386 68.2912 33.1386C69.4629 33.1386 70.2005 32.537 70.2005 30.8631V12.7847H73.6844V30.6277C73.6844 34.3784 71.8117 36.5179 68.1918 36.5179C64.5719 36.5179 62.6992 34.3731 62.6992 30.6277V12.7847H66.3819Z" fill="black"/>
<path d="M86.401 12.7847V16.0645L79.4019 32.8718H86.401V36.2197H75.6199V32.9398L82.619 16.1325H75.9599V12.7847H86.4063H86.401Z" fill="black"/>
<path d="M98.7881 12.7847V16.0645L91.789 32.8718H98.7881V36.2197H88.007V32.9398L95.0061 16.1325H88.347V12.7847H98.7934H98.7881Z" fill="black"/>
<path d="M104.48 12.7847V30.8631C104.48 32.537 105.217 33.1386 106.389 33.1386C107.561 33.1386 108.298 32.537 108.298 30.8631V12.7847H111.782V30.6277C111.782 34.3784 109.909 36.5179 106.289 36.5179C102.67 36.5179 100.797 34.3731 100.797 30.6277V12.7847H104.48Z" fill="black"/>
<path d="M117.808 12.7847V30.8631C117.808 32.537 118.546 33.1386 119.718 33.1386C120.889 33.1386 121.627 32.537 121.627 30.8631V12.7847H125.111V30.6277C125.111 34.3784 123.238 36.5179 119.618 36.5179C115.998 36.5179 114.126 34.3731 114.126 30.6277V12.7847H117.808Z" fill="black"/>
</g>
<defs>
<linearGradient id="paint0_linear_1_321" x1="4.10113" y1="-1.48038" x2="26.626" y2="20.558" gradientUnits="userSpaceOnUse">
<stop stop-color="#29D7FF"/>
<stop offset="0.14" stop-color="#3CBFFF"/>
<stop offset="0.42" stop-color="#7083FF"/>
<stop offset="0.83" stop-color="#C123FF"/>
<stop offset="0.98" stop-color="#E000FF"/>
</linearGradient>
<linearGradient id="paint1_linear_1_321" x1="-3.67393e-06" y1="28.1325" x2="40.823" y2="28.1325" gradientUnits="userSpaceOnUse">
<stop offset="0.15" stop-color="#FF00A6"/>
<stop offset="1" stop-color="#FF2447"/>
</linearGradient>
<linearGradient id="paint2_linear_1_321" x1="15.8081" y1="40.9909" x2="40.461" y2="39.0438" gradientUnits="userSpaceOnUse">
<stop stop-color="#643C81"/>
<stop offset="0.43" stop-color="#AB95BB"/>
<stop offset="0.82" stop-color="#E7E1EB"/>
<stop offset="1" stop-color="white"/>
</linearGradient>
<linearGradient id="paint3_linear_1_321" x1="17.2258" y1="19.993" x2="29.1683" y2="53.1997" gradientUnits="userSpaceOnUse">
<stop stop-color="#942162"/>
<stop offset="0.49" stop-color="#CC95B4"/>
<stop offset="0.84" stop-color="#F0E1EA"/>
<stop offset="1" stop-color="white"/>
</linearGradient>
<linearGradient id="paint4_linear_1_321" x1="16.551" y1="20.2337" x2="28.4935" y2="53.4455" gradientUnits="userSpaceOnUse">
<stop stop-color="#942162"/>
<stop offset="0.49" stop-color="#CC95B4"/>
<stop offset="0.84" stop-color="#F0E1EA"/>
<stop offset="1" stop-color="white"/>
</linearGradient>
<linearGradient id="paint5_linear_1_321" x1="26.4392" y1="12.1833" x2="3.52125" y2="5.99293" gradientUnits="userSpaceOnUse">
<stop stop-color="#513CFF"/>
<stop offset="0.43" stop-color="#A195FF"/>
<stop offset="0.82" stop-color="#E4E1FF"/>
<stop offset="1" stop-color="white"/>
</linearGradient>
<linearGradient id="paint6_linear_1_321" x1="33.7611" y1="32.9555" x2="7.86747" y2="-2.18134" gradientUnits="userSpaceOnUse">
<stop stop-color="#513CFF"/>
<stop offset="0.43" stop-color="#A195FF"/>
<stop offset="0.82" stop-color="#E4E1FF"/>
<stop offset="1" stop-color="white"/>
</linearGradient>
<linearGradient id="paint7_linear_1_321" x1="34.2894" y1="32.8038" x2="8.21273" y2="-2.58937" gradientUnits="userSpaceOnUse">
<stop stop-color="#513CFF"/>
<stop offset="0.43" stop-color="#A195FF"/>
<stop offset="0.82" stop-color="#E4E1FF"/>
<stop offset="1" stop-color="white"/>
</linearGradient>
<linearGradient id="paint8_linear_1_321" x1="23.0113" y1="34.9067" x2="17.8012" y2="16.8806" gradientUnits="userSpaceOnUse">
<stop stop-color="white"/>
<stop offset="0.16" stop-color="#EBE1F4"/>
<stop offset="0.51" stop-color="#B995D9"/>
<stop offset="1" stop-color="#6C21B0"/>
</linearGradient>
<linearGradient id="paint9_linear_1_321" x1="22.5804" y1="31.3871" x2="17.9137" y2="15.8053" gradientUnits="userSpaceOnUse">
<stop offset="0.16" stop-color="white"/>
<stop offset="0.29" stop-color="#EBE1F4"/>
<stop offset="0.59" stop-color="#B995D9"/>
<stop offset="1" stop-color="#6C21B0"/>
</linearGradient>
<clipPath id="clip0_1_321">
<rect width="125.105" height="48" fill="white"/>
</clipPath>
</defs>
</svg>
